<svg width="555" height="497" viewBox="0 0 555 497" fill="none" xmlns="http://www.w3.org/2000/svg">
<path d="M278.625 454.732H527.439V186.593L332.673 258.773L278.625 454.732Z" fill="white" stroke="black" stroke-width="4"/>
<path fill-rule="evenodd" clip-rule="evenodd" d="M487.149 350.674C485.028 343.582 483.078 340.576 479.311 338.111C475.787 335.805 470.644 333.869 463.139 332.455C455.322 331.276 455.101 327.773 453.141 322.143C452.569 320.451 449.736 320.001 448.513 321.221C448.34 321.06 448.161 320.913 447.975 320.78C448.141 319.973 446.778 317.66 446.823 316.887C447.299 308.828 444.241 304.781 436.611 303.277C434.951 302.949 423.679 302.757 422.061 303.142C414.987 304.829 408.023 310.183 409.089 316.632C406.869 319.134 404.695 320.661 401.27 321.468C395.935 322.052 398.615 387.218 407.88 426.259C411.856 443.01 506.911 414.499 502.616 406.11C503.224 404.572 502.115 402.882 502.616 401.294C502.978 400.145 503.906 399.669 504.374 398.531C505.031 396.93 504.316 394.782 503.576 393.147C503.272 392.333 504.134 391.456 504.374 390.625C505.51 386.706 502.909 387.051 501.033 384.431C501.061 384.422 501.549 382.552 501.547 382.561C501.834 381.225 501.115 379.514 500.487 378.4C500.063 377.646 499.155 377.174 498.252 377.261C499.161 374.6 500.311 372.386 501.547 369.823C503.733 365.305 505.812 360.578 508.951 356.488C510.237 354.814 509.198 353.273 507.118 353.159C500.384 352.79 493.724 351.955 487.149 350.674Z" fill="#D08B5B"/>
<path fill-rule="evenodd" clip-rule="evenodd" d="M476.637 351.222L461.266 373.652C461.266 373.652 464.912 373.966 466.388 374.577C467.864 375.188 474.639 382.616 474.639 382.616L475.716 386.705L473.165 390.003L474.16 392.073C474.16 392.073 474.87 390.67 476.637 389.582C478.404 388.493 482.301 386.705 482.301 386.705C482.301 386.705 481.006 386.108 481.006 385.407C481.006 384.705 479.865 381.713 482.301 380.583C484.737 379.452 497.324 376.807 497.324 376.807L510.081 353.604L476.637 351.222Z" fill="#EC7495"/>
<path fill-rule="evenodd" clip-rule="evenodd" d="M408.068 321.62L456.875 329.006L479.311 338.111L482.973 340.544L461.266 373.652L427.748 378.925L419.208 398.051L420.951 419.609L475.479 414.004L498.999 411.594L504.528 430.841L503.529 438.759L502.077 442.774L443.768 456.348C443.768 456.348 414.076 453.867 408.813 453.867C403.549 453.867 364.959 457.171 364.959 457.171L356.031 456.348C356.031 456.348 336.276 438.395 333.212 432.006C330.148 425.616 323.523 386.775 323.523 386.775L324.252 380.807L341.32 342.934C341.32 342.934 343.599 341.149 346.472 338.111C349.346 335.072 408.068 321.62 408.068 321.62Z" fill="#9DDADB"/>
<path fill-rule="evenodd" clip-rule="evenodd" d="M496.404 376.329C491.993 376.522 487.577 377.426 483.588 379.065C481.955 379.736 480.476 380.706 480.043 382.3C479.824 383.114 479.877 383.956 479.994 384.778C480.082 385.401 480.104 386.196 480.731 386.618C480.838 386.689 480.953 386.744 481.072 386.784C479.6 387.356 478.198 388.045 476.953 388.754C475.814 389.402 474.644 390.401 474.119 391.527C474.075 391.399 474.031 391.28 473.987 391.167C473.092 388.884 471.713 387.015 469.54 385.758C469.293 384.982 466.646 381.646 464.186 381.772C461.493 381.908 459.327 382.078 456.891 383.146C456.004 383.129 455.118 383.139 454.242 383.173C454.091 383.177 454.099 383.354 454.242 383.368C454.953 383.446 455.663 383.532 456.373 383.632C458.062 383.865 459.745 384.161 461.392 384.528C463.368 384.969 465.411 385.412 467.258 386.182C470.839 387.678 473.056 391.588 472.601 394.991C472.525 395.549 472.275 397.236 471.377 397.062C470.618 396.915 470.316 395.549 470.051 395.044C469.341 393.701 468.061 392.824 466.526 392.23C464.723 391.532 462.794 391.06 460.925 390.51C459.867 390.197 458.809 389.885 457.748 389.574C456.663 389.253 455.631 388.81 454.476 389.035C453.777 389.171 453.697 389.889 454.089 390.3C454.685 390.927 455.57 391.112 456.429 391.37C457.563 391.71 458.694 392.05 459.826 392.39C461.575 392.914 463.407 393.357 465.112 393.999L465.059 394.104C464.92 394.07 464.757 394.19 464.784 394.337C465.039 395.694 465.394 397.264 465 398.623C464.689 399.702 463.591 400.896 462.166 400.578C462.39 400.402 462.473 400.098 462.322 399.817C461.757 398.776 454.361 394.668 453.702 396.194C453.68 396.248 453.748 396.288 453.802 396.28C454.364 396.179 455.305 397.005 455.755 397.268C456.405 397.646 457.064 398.015 457.707 398.403C458.41 398.827 459.096 399.272 459.765 399.731C460.29 400.092 460.687 400.467 461.29 400.65C460.974 400.78 460.723 401.021 460.616 401.33C460.344 402.133 459.818 402.815 458.906 403.17C457.95 403.539 456.872 403.306 455.865 403.396C454.493 403.516 453.296 404.078 452.296 404.882C450.196 406.573 449.143 409.552 446.206 410.351C444.452 410.828 442.506 410.528 440.73 410.311C438.747 410.07 436.815 409.879 434.818 410.131C432.906 410.373 431.098 410.943 429.351 411.64C427.714 412.292 425.904 413.031 424.451 414.004C424.152 413.209 423.851 412.422 423.622 411.61C423.082 409.691 422.79 407.735 422.719 405.763C422.654 403.885 422.775 401.999 422.962 400.13C423.055 399.196 423.201 398.266 423.293 397.333C423.317 397.098 423.366 396.846 423.403 396.594C425.996 395.275 428.721 394.264 431.468 393.223C431.475 393.221 431.482 393.216 431.49 393.214C431.575 393.181 431.658 393.149 431.743 393.118C431.74 393.114 431.738 393.11 431.733 393.105C432.047 392.94 432.266 392.719 432.397 392.472C436.356 390.208 439.664 387.117 442.131 383.513C443.165 382.002 444.16 380.435 445.513 379.111C446.953 377.699 448.664 376.86 450.78 376.423C453.254 375.912 455.804 375.605 458.339 375.431C459.723 375.337 461.27 375.19 462.779 375.196C463.83 375.202 464.859 375.28 465.803 375.504C467.202 375.836 468.02 376.753 468.898 377.68C469.737 378.57 470.572 379.462 471.355 380.389C472.097 381.268 472.798 382.176 473.406 383.129C473.771 383.7 474.109 384.287 474.394 384.893C474.493 385.108 474.625 385.351 474.686 385.573C474.746 385.798 474.635 386.035 474.926 386.035C473.722 386.049 472.922 388.639 474.119 388.578C475.802 388.494 476.648 386.754 476.318 385.21C475.73 382.456 472.553 379.13 471.924 378.425C470.535 376.868 469.102 374.837 466.879 374.113C466.847 374.103 466.813 374.093 466.781 374.084C467.428 373.555 467.939 372.922 468.428 372.278C468.932 371.615 469.533 370.855 469.698 370.068C469.803 369.567 469.08 369.282 468.737 369.72C468.238 370.36 467.998 371.17 467.625 371.873C467.246 372.586 466.784 373.26 466.419 373.979C465.54 373.746 464.592 373.639 463.626 373.604C464.845 372.181 466.927 369.437 467.178 369.084C468.331 367.452 469.428 365.77 470.477 364.085C471.61 362.259 472.581 360.358 473.666 358.512C474.282 357.465 474.902 356.41 475.586 355.394C475.822 355.046 476.075 354.698 476.362 354.381C476.418 354.318 476.488 354.266 476.554 354.207C476.63 354.171 476.707 354.131 476.751 354.111C477.145 353.915 477.284 353.462 477.561 353.175C478.004 352.711 478.525 352.657 479.191 352.65C480.612 352.638 482.038 352.686 483.456 352.719C485.541 352.77 487.624 352.841 489.706 352.935C490.336 352.965 490.964 352.994 491.594 353.028C494.623 353.183 497.65 353.387 500.669 353.636C503.34 353.857 506.011 354.216 508.685 354.388C505.065 361.804 501.051 369.087 496.506 376.115C496.46 376.186 496.426 376.258 496.404 376.329ZM476.318 395.436C475.734 395.667 475.167 395.954 474.639 396.282C474.727 395.772 474.749 395.235 474.725 394.696C475.16 395.098 475.717 395.329 476.318 395.436ZM501.243 382.678C501.202 382.682 501.163 382.701 501.143 382.736C500.336 384.174 500.673 385.779 501.992 386.905C502.683 387.493 504.189 388.156 504.14 389.121C504.099 389.901 503.114 390.556 502.693 391.2C502.301 391.8 502.155 392.459 502.469 393.11C502.871 393.942 503.992 394.274 504.377 395.092C504.863 396.131 504.072 397.383 503.518 398.287C503.002 399.125 502.335 399.962 501.893 400.847C498.927 402.171 492.198 404.575 491.387 404.71C490.4 404.875 489.409 405.033 488.417 405.18C486.512 405.465 484.602 405.729 482.687 405.962C481.597 406.094 480.505 406.224 479.413 406.327C478.459 406.415 477.384 406.535 476.615 405.916C475.065 404.666 475.934 402.57 476.914 401.307C476.934 401.282 476.934 401.258 476.926 401.237C477.851 401.051 478.773 400.832 479.693 400.679C481.461 400.385 483.242 400.138 485.025 399.918C488.689 399.467 492.378 399.169 496.061 398.869C496.973 398.793 496.983 397.555 496.061 397.629C490.769 398.046 485.451 398.443 480.23 399.322C478.921 399.54 477.622 399.788 476.33 400.067C475.72 400.197 475.065 400.4 474.425 400.407C474.386 400.407 474.347 400.407 474.309 400.404C473.056 400.371 472.873 399.446 473.562 398.676C473.647 398.581 473.734 398.487 473.824 398.397C475.041 397.146 476.556 396.311 478.118 395.447C479.868 395.241 481.612 394.784 483.325 394.448C487.553 393.617 491.782 392.786 496.012 391.958C496.842 391.794 496.489 390.694 495.66 390.856C492.448 391.484 489.237 392.111 486.025 392.738L481.325 393.657C480.386 393.839 479.213 394.207 478.108 394.339C477.564 394.404 477.036 394.412 476.559 394.316C475.019 394.001 474.941 392.341 475.605 391.355C476.35 390.248 477.756 389.555 479.004 388.928C481.167 387.839 483.468 387.056 485.716 386.154C486.115 386.079 486.514 386.003 486.913 385.928C489.234 385.487 491.886 385.271 494.071 384.463C494.725 384.224 494.367 383.334 493.721 383.347C492.025 383.379 490.251 383.899 488.594 384.207C486.801 384.543 485.006 384.877 483.213 385.21C483.033 385.244 481.967 385.537 481.807 385.472C481.705 385.43 481.668 385.124 481.634 384.923C481.524 384.26 481.444 383.563 481.563 382.898C481.826 381.406 483.269 380.706 484.729 380.133C487.979 378.859 491.543 378.062 495.09 377.743C495.908 377.67 496.725 377.624 497.547 377.6C498.513 377.575 499.309 377.428 499.798 378.249C500.567 379.541 500.99 381.203 501.243 382.678ZM496.729 429.537C496.021 427.425 496.213 425.169 495.728 423.015C495.478 421.903 495.136 420.801 494.763 419.715C494.462 418.839 493.959 417.906 493.902 416.992C493.899 416.931 493.983 416.895 494.04 416.924C495.039 417.417 495.806 418.484 496.376 419.321C497.058 420.323 497.579 421.372 497.999 422.475C498.837 424.672 499.524 427.323 498.444 429.537C498.123 430.196 496.994 430.328 496.729 429.537ZM469.09 445.528C468.034 444.893 467.265 444.005 466.37 443.221C465.49 442.451 466.866 441.264 467.746 442.035C468.51 442.703 469.173 443.538 470.072 444.078C470.504 444.338 470.704 444.809 470.421 445.227C470.17 445.596 469.521 445.787 469.09 445.528ZM463.204 421.117C465.13 420.399 467.025 419.617 469.042 419.099C470.247 418.79 470.757 420.41 469.559 420.717C467.702 421.194 465.96 421.905 464.186 422.567C463.047 422.991 462.057 421.545 463.204 421.117ZM442.858 420.615C442.386 419.612 444.27 419.18 444.734 420.169C445.269 421.306 445.882 422.415 446.416 423.552C446.887 424.555 445.003 424.987 444.539 423.998C444.005 422.861 443.392 421.752 442.858 420.615ZM422.775 440.634C422.462 440.995 421.938 441.191 421.444 440.936C421.03 440.722 420.777 440.153 421.095 439.787C422.022 438.721 422.962 437.668 424.05 436.717C424.931 435.946 426.307 437.134 425.426 437.904C424.455 438.753 423.604 439.682 422.775 440.634ZM419.904 328.305C420.797 328.832 421.58 329.471 422.343 330.129C423.23 330.893 421.854 332.08 420.967 331.315C420.324 330.761 419.675 330.198 418.922 329.755C418.486 329.498 418.291 329.021 418.572 328.606C418.825 328.235 419.47 328.05 419.904 328.305ZM449.121 355.315C448.616 356.188 448.161 357.042 448.132 358.034C448.102 359.114 446.155 359.114 446.186 358.034C446.223 356.737 446.778 355.612 447.44 354.468C448 353.5 449.678 354.351 449.121 355.315ZM459.84 333.623C460.887 333.021 461.86 334.476 460.823 335.072C459.982 335.555 459.141 336.039 458.3 336.522C457.255 337.124 456.281 335.669 457.318 335.073C458.159 334.59 459 334.106 459.84 333.623ZM413.344 371.55C413.166 372.617 411.291 372.161 411.467 371.104C411.741 369.471 412.075 367.86 412.589 366.27C412.925 365.229 414.802 365.674 414.465 366.716C413.952 368.307 413.618 369.918 413.344 371.55ZM406.52 390.777C405.268 390.754 405.267 389.076 406.52 389.098C407.654 389.119 408.769 389.376 409.862 389.612C411.079 389.874 410.56 391.492 409.345 391.23C408.42 391.031 407.479 390.795 406.52 390.777ZM404.001 429.507C403.571 429.688 403.129 429.851 402.694 430.022C401.823 430.366 400.952 430.71 400.082 431.054C398.269 431.772 396.456 432.492 394.645 433.215C391.02 434.662 387.367 436.058 383.734 437.49C380.028 438.95 376.332 440.429 372.641 441.915C370.902 442.615 369.15 443.29 367.401 443.972C365.906 444.555 364.058 445.574 362.416 445.67C362.332 445.675 362.303 445.583 362.352 445.535C362.972 444.927 363.961 444.573 364.776 444.178C365.609 443.774 366.457 443.394 367.301 443.009C369.061 442.204 370.823 441.407 372.6 440.631C376.154 439.08 379.716 437.54 383.278 436.002C386.91 434.433 390.539 432.854 394.203 431.341C395.929 430.628 397.656 429.918 399.384 429.21C400.32 428.827 401.257 428.444 402.193 428.061C402.598 427.896 402.998 427.718 403.412 427.57C403.961 427.374 404.379 427.414 404.946 427.293C405.871 427.097 406.271 428.11 405.561 428.552C404.977 428.915 404.669 429.226 404.001 429.507ZM391.008 446.718C390.808 446.299 391.227 445.79 391.688 445.686C392.24 445.56 392.683 445.85 392.885 446.272C393.419 447.391 394.179 448.418 395.157 449.285C396.031 450.06 394.656 451.248 393.781 450.472C392.555 449.385 391.674 448.115 391.008 446.718ZM381.449 419.776C380.562 419.012 381.938 417.825 382.825 418.59L385.348 420.765C386.235 421.53 384.858 422.717 383.971 421.952L381.449 419.776ZM355.57 416.23C353.757 416.689 351.642 417.11 350.405 418.445C350.345 418.51 350.244 418.426 350.28 418.361C351.863 415.531 356.402 414.539 359.545 413.547C361.768 412.846 364.049 412.264 366.349 411.745C366.119 409.482 366.753 407.057 366.973 404.805C367.208 402.401 367.4 399.991 367.498 397.58C367.599 395.12 367.623 392.643 367.529 390.182C367.436 387.731 367.067 385.309 366.905 382.866C366.889 382.63 367.271 382.618 367.353 382.813C368.308 385.081 368.716 387.592 369.027 389.983C369.347 392.446 369.454 394.902 369.413 397.379C369.371 399.926 369.199 402.467 368.963 405.006C368.851 406.21 368.722 407.411 368.599 408.614C368.506 409.532 368.463 410.442 368.246 411.33C369.633 411.037 371.023 410.759 372.409 410.489C376.829 409.629 381.267 408.831 385.668 407.901C387.828 407.445 389.958 406.898 392.108 406.412C394.134 405.955 396.271 405.401 398.35 405.197C399.092 405.124 399.187 405.999 398.696 406.296C397.006 407.32 394.761 408.032 392.809 408.605C390.85 409.18 388.814 409.593 386.806 410.019C382.619 410.907 378.392 411.633 374.172 412.389C369.957 413.145 365.734 413.895 361.567 414.827C359.56 415.276 357.56 415.727 355.57 416.23ZM345.633 371.327C344.549 371.875 343.571 370.424 344.651 369.877C346.063 369.162 347.569 368.625 349.087 368.101C350.252 367.699 350.753 369.323 349.605 369.719C348.24 370.19 346.902 370.684 345.633 371.327ZM341.709 433.684C340.623 434.228 339.644 432.777 340.727 432.235C342.248 431.475 343.915 430.967 345.492 430.302C346.613 429.828 347.599 431.276 346.474 431.751C344.897 432.417 343.231 432.924 341.709 433.684ZM339.944 398.287C340.995 399.148 342.397 399.553 343.719 400.005C344.872 400.399 344.366 402.022 343.201 401.624C341.554 401.06 339.877 400.546 338.568 399.474C337.658 398.728 339.036 397.543 339.944 398.287ZM351.566 350.215C352.721 350.606 352.216 352.228 351.049 351.834C349.755 351.396 348.419 351.063 347.125 350.625C345.971 350.235 346.476 348.612 347.643 349.007C348.936 349.444 350.273 349.777 351.566 350.215ZM372.069 331.121C373.296 330.943 373.819 332.56 372.587 332.74C371.058 332.962 369.552 333.223 368.102 333.706C366.931 334.097 366.429 332.474 367.585 332.088C369.035 331.604 370.54 331.344 372.069 331.121ZM378.843 377.611C377.718 377.134 378.705 375.687 379.826 376.162C381.006 376.662 382.229 377.049 383.517 377.285C384.743 377.511 384.221 379.128 383 378.904C381.55 378.637 380.171 378.174 378.843 377.611ZM385.242 351.424C386.453 351.137 386.966 352.757 385.759 353.042C383.636 353.544 381.451 353.805 379.313 354.251C378.094 354.505 377.579 352.886 378.795 352.632C380.934 352.186 383.119 351.925 385.242 351.424ZM412.384 343.206C413.616 343.402 413.091 345.02 411.867 344.825C410.564 344.617 409.243 344.613 407.922 344.613C406.667 344.612 406.67 342.934 407.922 342.934C409.423 342.935 410.905 342.97 412.384 343.206ZM500.907 351.975C497.727 351.713 494.543 351.503 491.353 351.345C491.205 351.339 491.059 351.331 490.91 351.324C490.894 351.295 490.872 351.268 490.849 351.238C489.808 349.921 489.042 348.603 488.378 347.113C487.743 345.695 487.127 344.233 486.149 342.953C485.034 341.495 483.528 340.354 481.877 339.365C480.876 339.946 479.947 340.625 479.097 341.346C478.203 342.104 476.826 340.917 477.721 340.159C478.476 339.519 479.283 338.927 480.135 338.393C479.151 337.877 478.147 337.393 477.167 336.91C473.496 335.104 469.737 333.434 465.9 331.907C464.117 331.195 462.312 330.564 460.495 329.924C459.516 329.58 458.551 329.137 457.573 328.739C457.643 328.143 457.437 327.475 456.906 327.083C456.514 326.796 456.21 326.689 455.743 326.485C455.639 326.454 455.575 326.435 455.546 326.424C455.568 326.428 455.631 326.445 455.736 326.475C455.984 326.573 456.004 326.544 455.794 326.389C455.782 326.049 455.006 325.331 454.828 324.981C454.21 323.779 454.018 322.507 453.106 321.412C451.848 319.903 449.736 319.333 447.768 319.845C447.564 318.03 447.51 316.136 446.717 314.516C446.695 314.472 446.625 314.453 446.593 314.501C445.766 315.716 445.695 317.069 445.632 318.47C445.571 319.786 445.629 321.131 445.829 322.438C445.703 322.522 445.574 322.602 445.44 322.679C444.812 323.036 444.136 323.311 443.426 323.514C442.073 323.9 440.654 324.068 439.236 324.127C435.575 324.278 431.801 323.959 428.201 323.418C424.559 322.87 418.975 322.048 415.734 320.476C413.596 319.44 411.623 318.175 409.623 316.949C410.348 314.935 410.533 312.77 409.803 311.068C409.715 310.865 409.346 310.827 409.275 311.068C408.818 312.692 408.684 314.325 408.076 315.93C408.066 315.953 408.056 315.978 408.047 316.001C407.857 315.89 407.667 315.781 407.477 315.672C407.039 315.422 406.443 315.609 406.181 315.965C401.979 321.674 395.325 322.002 388.338 323.021C380.691 324.137 373.006 325.342 365.654 327.526C358.623 329.616 351.903 332.658 346.58 337.202C345.375 338.231 344.248 339.327 343.184 340.472C344.213 340.584 345.234 340.758 346.241 341.031C347.434 341.354 346.922 342.974 345.724 342.649C344.429 342.298 343.12 342.125 341.797 342.039C338.18 346.306 335.36 351.144 332.922 355.906C328.244 365.037 325.199 374.762 323.798 384.662C324.567 384.264 325.35 383.885 326.153 383.533C327.268 383.044 328.252 384.493 327.135 384.982C325.896 385.526 324.691 386.126 323.525 386.776C323.015 391.109 322.817 395.471 322.937 399.825C323.222 410.207 324.847 420.892 328.523 430.797C330.326 435.658 332.715 440.48 336.274 444.588C337.885 446.449 339.714 448.127 341.87 449.527C342.913 450.206 344.018 450.813 345.183 451.325C346.684 451.988 348.64 452.206 349.935 453.144C350.36 453.452 350.689 453.859 350.937 454.319C350.793 455.191 350.776 456.066 351.054 456.939C351.141 457.212 351.38 457.434 351.674 457.541C351.679 457.617 351.679 457.69 351.679 457.761C351.679 457.795 351.737 457.803 351.745 457.77C351.757 457.705 351.769 457.64 351.781 457.573C351.876 457.6 351.976 457.613 352.078 457.613C355.774 457.625 359.474 457.547 363.174 457.439C362.888 456.683 362.578 455.933 362.281 455.177C361.876 454.151 363.757 453.714 364.157 454.731C364.505 455.615 364.869 456.491 365.193 457.378C369.158 457.251 373.122 457.098 377.078 456.985C385.494 456.744 393.907 456.664 402.324 456.511C415.396 456.272 428.564 455.783 441.656 456.262C442.109 455.433 442.615 454.623 443.096 453.806C443.663 452.841 445.341 453.691 444.777 454.653C444.442 455.221 444.097 455.782 443.768 456.349C446.419 456.467 449.068 456.624 451.712 456.839C456.222 457.203 460.689 457.852 465.195 458.255C469.776 458.666 474.257 458.592 478.802 457.94C479.62 457.823 480.101 457.396 480.301 456.868C480.308 456.866 480.313 456.862 480.318 456.855C480.551 456.62 480.77 456.425 480.996 456.255C481.267 456.104 481.559 455.976 481.902 455.863C482.541 455.653 483.208 455.525 483.884 455.439C484.629 455.343 485.383 455.334 486.127 455.254C486.755 455.185 487.368 455.082 487.981 454.957C489.083 454.73 490.13 454.434 491.171 454.042C492.078 453.7 492.898 453.209 493.672 452.674C495.273 451.664 496.659 450.376 497.871 449.038C498.577 448.255 499.241 447.443 499.844 446.598C500.895 445.133 501.79 443.612 502.695 442.078C503.024 441.624 503.324 441.159 503.598 440.683C501.829 440.234 500.043 439.868 498.168 439.842C496.915 439.824 496.915 438.146 498.168 438.163C500.319 438.193 502.353 438.626 504.374 439.142C504.472 438.917 504.567 438.689 504.654 438.459C504.895 437.979 505.094 437.486 505.26 436.986C505.357 436.76 505.454 436.533 505.552 436.307C505.771 435.522 505.99 434.735 506.211 433.948C506.651 432.689 506.999 431.412 507.255 430.117C507.469 429.265 507.634 428.407 507.746 427.539C508.087 425.434 508.364 423.334 508.383 421.207C508.354 419.895 508.257 418.586 508.092 417.283C508.021 416.398 507.902 415.517 507.741 414.642C507.532 413.341 507.325 412.053 506.977 410.769C506.717 409.9 506.457 409.032 506.196 408.163C505.547 406.353 504.78 404.577 503.897 402.842C503.849 402.733 503.603 402.494 503.454 402.492C503.343 402.49 503.187 402.578 503.238 402.696C503.243 402.706 503.247 402.719 503.253 402.729C503.201 402.63 503.153 402.53 503.102 402.431C503.058 402.339 502.888 402.154 502.756 402.156C502.749 402.156 502.741 402.156 502.732 402.158C502.766 402.138 502.798 402.11 502.829 402.079C503.703 401.187 504.27 400.014 504.895 398.982C505.413 398.13 505.902 397.232 506.043 396.269C506.167 395.424 505.999 394.591 505.384 393.907C504.683 393.128 503.364 392.763 504.097 391.639C504.929 390.359 506.153 389.249 504.934 387.795C504.313 387.054 503.33 386.648 502.601 386.003C501.761 385.258 501.362 384.262 501.384 383.244C501.435 383.269 501.503 383.257 501.528 383.194C502.233 381.356 501.722 379.338 501 377.548C500.606 376.577 499.771 376.31 498.8 376.262C503.004 369.181 506.938 361.987 510.444 354.627C510.561 354.385 510.675 354.144 510.789 353.903C510.96 353.542 510.6 353.062 510.184 352.982C507.152 352.409 503.995 352.226 500.907 351.975Z" fill="black"/>
<path fill-rule="evenodd" clip-rule="evenodd" d="M462.697 249.474C461.759 244.573 464.836 243.556 462.697 238.898C457.943 230.265 444.987 230.637 435.48 229.974C424.876 229.622 414.143 230.832 404.368 234.505C402.033 235.382 399.787 236.414 397.634 237.586C395.772 238.6 396.028 240.527 397.202 241.578C388.738 251.937 393.579 265.841 386.825 276.745C385.578 278.694 383.927 280.442 382.843 282.47C381.194 285.552 381.089 289.969 384.827 292.016C390.092 294.459 393.03 289.623 395.617 296.633C408.537 321.073 434.514 322.45 459.174 309.707C461.308 308.682 463.485 307.523 465.096 305.911C468.753 302.355 468.322 297.353 468.403 292.912C468.448 290.309 468.456 287.706 468.426 285.103C468.311 274.559 464.267 259.932 462.697 249.474Z" fill="#D08B5B"/>
<path fill-rule="evenodd" clip-rule="evenodd" d="M410.173 220.161C425.062 214.324 441.95 212.111 458.191 213.563C466.208 214.278 474.119 215.813 481.648 218.306L482.308 218.527C484.166 219.145 486.17 219.759 487.582 221.017C489.226 222.479 489.687 224.691 488.512 226.497C487.599 227.901 485.958 228.908 484.207 229.445C484.824 229.881 485.409 230.368 485.958 230.911C486.883 231.822 486.953 233.121 485.958 234.019C484.04 235.75 481.551 237.002 478.871 237.602C479.172 238.859 479.009 240.25 478.364 241.503C476.511 245.098 471.291 245.526 467.274 245.313L467.152 245.306L466.929 247.516C466.81 248.693 465.994 249.605 464.61 249.786C464.562 249.792 464.513 249.796 464.465 249.8C466.655 256.644 467.978 263.7 469.199 270.714C469.837 274.375 470.408 278.045 470.955 281.717L471.136 282.942C471.719 286.901 472.447 290.9 472.7 294.888C472.925 298.507 472.127 301.963 469.546 304.883C467.23 307.502 464.071 309.463 460.675 310.919C453.001 314.211 444.924 316.662 436.436 317.799L435.87 317.874C432.594 318.306 429.219 318.671 425.978 317.887C423.13 317.199 420.144 315.424 420.787 312.573C421.003 311.61 422.562 311.568 423.096 312.312L423.219 312.483C423.86 313.361 424.562 314.178 425.679 314.631C426.988 315.164 428.505 315.312 429.935 315.327C433.929 315.367 438.087 314.507 441.933 313.645C449.114 312.034 456.49 309.407 462.372 305.427C464.875 303.736 466.885 301.621 467.594 298.899C468.471 295.545 467.665 291.877 467.266 288.506C466.447 281.549 465.472 274.604 464.443 267.668L464.237 266.281C463.37 260.482 462.46 254.681 462.027 248.848C461.848 248.636 461.726 248.395 461.678 248.13L461.61 247.751C461.551 247.425 461.542 247.127 461.583 246.853C461.585 245.799 461.619 244.752 461.69 243.699C461.702 243.51 461.712 243.322 461.719 243.135C460.452 243.376 459.175 243.571 457.893 243.737C448.881 244.91 439.728 245.204 430.644 244.62C426.111 244.328 421.613 243.827 417.128 243.2C414.846 242.881 412.572 242.528 410.304 242.134C408.665 241.851 407.061 241.467 405.449 241.106C403.786 243.198 402.887 245.772 403.062 248.3C403.259 251.185 405.483 253.801 404.859 256.749C404.273 259.508 401.538 260.363 398.838 261.047L397.69 261.333C396.806 261.556 396.165 261.771 396.005 262.689C395.73 264.265 396.068 266.037 396.138 267.621C396.223 269.495 396.335 271.369 396.386 273.242C396.412 274.211 396.456 275.185 396.454 276.154C396.451 276.842 396.332 277.312 396.024 277.757C396.262 278.015 396.475 278.294 396.665 278.59C396.726 278.687 396.575 278.789 396.486 278.71C396.245 278.494 395.99 278.299 395.721 278.124C395.585 278.269 395.427 278.416 395.242 278.573L395.228 278.557C394.65 279.054 393.732 279.102 393.016 278.573L392.828 278.433C392.303 278.035 391.943 277.705 391.797 277.048C391.79 277.014 391.783 276.981 391.778 276.947C390.445 276.907 389.09 277.18 387.891 277.753C385.99 278.661 384.652 279.956 383.861 281.555C384.177 281.874 384.546 282.159 384.975 282.398C385.036 282.434 384.983 282.511 384.917 282.484C384.478 282.306 384.084 282.086 383.732 281.827C383.448 282.457 383.249 283.132 383.128 283.848C382.701 286.374 383.463 289.46 386.104 290.9C387.248 291.523 388.554 291.86 389.909 291.865C390.569 291.867 391.139 291.77 391.78 291.634C392.215 291.542 392.647 291.407 393.101 291.407C393.489 291.407 393.849 291.491 394.181 291.659L394.089 291.666C393.865 291.684 393.908 291.692 394.22 291.692C395.191 291.728 395.747 292.58 395.301 293.321L395.242 293.435C395.23 293.458 395.219 293.477 395.211 293.493L395.176 293.689C395.172 293.708 395.169 293.727 395.165 293.747L395.151 293.786C395.149 293.793 395.146 293.799 395.143 293.805L396.599 295.725C398.385 298.073 400.21 300.412 402.288 302.556C403.744 304.061 405.288 305.536 406.92 306.902C408.386 308.129 410.144 308.721 411.804 309.686C412.691 310.198 412.95 311.27 412.145 311.96C409.78 313.989 406.432 312.378 404.492 310.728C402.657 309.165 401.071 307.285 399.705 305.404C397.279 302.057 395.349 298.499 394.504 294.636C394.152 294.915 393.703 295.089 393.249 295.226C392.339 295.499 391.336 295.612 390.375 295.641C388.532 295.694 386.687 295.308 385.029 294.624C378.282 291.844 377.292 283.519 381.416 278.609C380.86 277.215 380.549 275.703 380.212 274.413L380.058 273.837C378.353 267.397 377.208 260.617 380.232 254.307C380.62 253.493 381.057 252.7 381.574 251.94C381.989 251.33 382.703 250.679 382.9 249.985C383.337 248.46 380.639 246.857 379.853 245.646C378.928 244.226 378.797 242.549 380.057 241.251C380.217 241.087 380.392 240.936 380.581 240.804C379.387 238.932 379.331 236.578 380.904 234.732C381.938 233.515 383.516 232.663 385.24 232.405C386.294 232.248 387.561 232.307 388.719 232.588C395.06 227.5 402.295 223.249 410.173 220.161ZM385.823 283.823C387.515 282.532 389.384 281.857 391.691 282.027C394.009 282.199 396.801 283.028 398.163 284.746C399.239 286.103 397.046 288.094 395.468 287.075C394.031 286.145 393.072 285.096 391.288 284.597C389.685 284.15 387.702 283.863 386.024 284.119C385.84 284.146 385.655 283.949 385.823 283.823Z" fill="black"/>
<path fill-rule="evenodd" clip-rule="evenodd" d="M452.025 296.804C452.194 296.765 452.342 296.96 452.202 297.067C451.63 297.506 451.266 298.322 450.848 298.879C450.45 299.408 450.067 299.932 449.718 300.487C449.326 301.108 448.947 301.727 448.642 302.384L448.582 302.517C448.673 302.704 448.744 302.889 448.797 303.011L448.812 303.045C449.333 304.193 448.24 305.468 447.006 305.789C444.896 306.338 443.085 304.843 443.035 303.066C442.995 301.668 444.094 300.422 445.211 299.498C446.188 298.689 447.281 298.001 448.505 297.497C449.045 297.275 449.605 297.089 450.192 296.981C450.791 296.871 451.438 296.941 452.025 296.804ZM448.047 301.871C448.202 301.934 448.334 302.088 448.445 302.267C448.39 302.115 448.275 301.964 448.047 301.871ZM449.368 282.444C451.205 283.407 454.004 285.653 452.028 288.04C449.701 290.146 446.352 287.732 444.701 286.64C443.171 285.794 441.451 287.97 442.871 288.958C454.798 296.573 459.639 282.696 450.297 281.312C449.268 281.16 448.886 282.146 449.368 282.444ZM434.266 273.197L434.591 273.174C435.999 273.067 437.424 272.904 438.813 273.178C440.678 273.548 440.541 275.888 438.813 276.318C437.289 276.697 435.601 276.533 434.028 276.546C433.781 276.548 433.534 276.554 433.287 276.557C433.238 277.064 433.045 277.502 432.75 277.938C432.538 278.252 432.268 278.55 432.003 278.828C431.371 279.49 429.881 279.475 429.244 278.828C428.772 278.349 428.397 277.798 428.391 277.15C428.389 276.984 428.413 276.808 428.459 276.635L427.6 276.648C425.5 276.675 423.383 276.663 421.32 276.375C420.586 276.506 419.986 275.364 420.999 275.023C423.752 274.094 426.828 273.821 429.749 273.542C431.251 273.398 432.76 273.3 434.266 273.197ZM457.722 272.238L457.797 272.231C459.619 272.07 461.627 271.792 463.453 271.952C466.179 272.191 466.174 275.369 463.453 275.606C462.454 275.694 461.401 275.651 460.352 275.568C460.888 276.549 460.252 277.721 458.959 277.871C457.758 278.01 456.513 277.004 456.907 275.924L456.926 275.876C457.002 275.689 457.072 275.48 457.154 275.273L456.719 275.241C455.419 275.142 453.616 274.94 453.138 274.055C452.994 273.789 453.027 273.541 453.249 273.313C454.16 272.378 456.405 272.347 457.722 272.238ZM438.347 264.962C439.666 264.549 441.037 265.516 441.208 266.605C441.404 267.861 440.354 268.687 439.023 268.837L438.957 268.844C436.019 269.123 433.103 269.633 430.161 269.922C428.825 270.053 427.479 270.139 426.134 270.17L425.173 270.188C423.995 270.214 422.731 270.237 421.644 269.888L421.648 269.881C421.359 269.809 421.226 269.45 421.548 269.253C422.705 268.547 424.266 268.281 425.614 267.945C426.969 267.608 428.334 267.296 429.703 267.004C432.577 266.391 435.563 265.834 438.347 264.962ZM450.509 265.255C450.858 263.667 453.467 263.497 454.426 264.652C455.045 264.836 455.953 265.027 456.516 265.171C457.496 265.422 458.478 265.671 459.461 265.912C461.497 266.413 463.484 267.047 465.486 267.638C465.693 267.699 465.636 267.925 465.438 267.947C462.643 268.261 459.896 268.407 457.085 268.306L456.508 268.284C454.031 268.2 449.826 268.359 450.509 265.255Z" fill="black"/>
<path fill-rule="evenodd" clip-rule="evenodd" d="M449.635 290.619C446.93 289.568 442.071 290.485 440.307 290.85C436.207 291.698 432.082 293.53 430.807 296.402C429.37 299.637 432.237 300.656 432.658 300.49C435.497 300.662 438.877 299.123 441.852 298.726C444.267 298.401 446.814 298.117 449.077 297.01C450.729 297.794 454.46 298.218 457.471 298.903C460.036 299.486 461.147 300.751 463.524 300.482C466.374 300.16 465.207 294.992 462.032 292.898C458.556 290.607 452.678 289.677 449.635 290.619ZM454.992 312.717C452.625 313.215 452.466 308.74 452.201 307.16C451.994 305.925 450.826 302.74 447.863 302.878C444.901 303.015 443.788 305.683 443.938 307.343C444.035 308.419 445.185 313.87 441.515 314.56C439.175 314.552 436.467 314.416 434.007 314.025C431.111 313.459 427.345 311.479 426.35 315.379C425.992 316.783 438.749 320.953 444.41 321.33C450.152 322.334 456.869 320.791 460.956 317.003C461.886 316.142 464.505 312.565 464.692 311.689C465.084 309.848 464.176 308.663 461.535 309.312C459.669 310.171 456.515 312.397 454.992 312.717Z" fill="black"/>
<path d="M2.24902 377.029V454.732H264.675L318.435 259.902L2.24902 377.029Z" fill="white" stroke="black" stroke-width="4"/>
<mask id="mask0_47_1524" style="mask-type:luminance" maskUnits="userSpaceOnUse" x="0" y="256" width="322" height="201">
<path d="M2.24902 377.029V454.732H264.675L318.435 259.902L2.24902 377.029Z" fill="white" stroke="white" stroke-width="4"/>
</mask>
<g mask="url(#mask0_47_1524)">
<path fill-rule="evenodd" clip-rule="evenodd" d="M329.187 693.987C324.974 682.819 329.992 669.92 326.712 657.881C325.588 653.119 323.452 635.427 321.306 625.082C320.106 619.295 327.285 617.498 328.388 615.188C336.153 594.44 279.513 545.627 276.055 543.829C270.874 541.246 266.29 539.023 261.228 536.384C246.46 531.909 228.752 519.46 215.364 527.456C192.168 497.668 201.344 460.969 188.757 456.607C176.171 452.245 139.001 443.429 117.751 454.686C105.013 462.816 105.952 476.812 100.141 488.354C96.7293 493.787 95.0533 501.657 91.0822 505.201C77.5892 517.241 60.7632 519.317 41.9527 521.36C40.52 521.516 39.0127 518.155 37.6205 518.57C5.88999 528.031 -31.0315 530.791 -66.9662 583.766C-72.0412 591.342 -85.7319 603.497 -81.1541 612.252C-111.317 672.758 -140.996 808.945 -58.2323 842.908C-55.5868 844.368 -37.6396 836.54 -34.7153 836.613C-29.8406 836.734 -39.1808 846.944 -34.7153 845.125C-1.93066 847.271 178.466 841.735 247.614 847.271C295.165 846.964 325.283 854.156 336.263 846.964C331.874 837.813 332.077 828.012 333.465 818.338C343.57 811.851 331.078 766.134 332.135 752.747C341.595 742.965 334.063 706.277 329.187 693.987Z" fill="#D08B5B"/>
<path fill-rule="evenodd" clip-rule="evenodd" d="M243.494 314.209C205.683 292.573 129.933 294.923 88.311 308.179C47.6985 319.313 33.4796 350.338 26.7364 383.857C18.54 421.529 19.6417 475.835 78.5811 475.178C86.8673 478.642 96.0471 480.144 104.621 483.013C116.355 486.521 127.861 490.592 139.768 493.664C163.221 500.193 189.319 499.625 211.566 490.071C223.857 484.938 228.945 476.945 236.983 468.427C260.368 443.648 272.135 408.185 271.081 376.677C269.231 354.491 264.986 328.808 243.494 314.209Z" fill="#D08B5B"/>
<path fill-rule="evenodd" clip-rule="evenodd" d="M291.34 405.536C287.461 384.717 286.385 363.544 281.305 342.888C276.526 323.45 267.591 305.082 251.978 290.264C238.006 277.006 219.941 267.27 200.549 261.1C162.771 249.082 119.321 251.8 82.7756 265.83C48.5692 278.957 21.2858 303.245 5.38359 332.392C-4.9475 351.33 -10.1413 371.464 -12.449 392.246C-15.0082 415.332 -15.2849 438.657 -16.3287 461.824C-16.4544 464.684 -16.6368 467.543 -16.6808 470.403C-16.7311 473.533 -15.266 476.278 -14.0713 479.192C-13.9896 479.398 -13.8701 479.595 -13.7255 479.78C-14.6246 479.877 -15.5238 479.991 -16.423 480.116C-17.4291 480.252 -17.385 481.665 -16.423 481.834C-8.28011 483.269 0.0891399 483.47 8.37036 483.823C16.9534 484.193 25.549 484.395 34.1446 484.644C42.5265 484.889 50.9083 485.133 59.2901 485.378C63.6917 485.508 68.0932 485.639 72.4948 485.764C74.5887 485.824 76.6825 485.889 78.7827 485.949C79.8265 485.982 80.8766 486.008 81.9204 486.041C82.7693 486.063 84.1526 486.53 84.2407 485.992C84.3979 486.074 84.5676 486.144 84.75 486.193C84.9512 486.286 85.1461 486.394 85.3348 486.514C86.3597 487.123 87.9128 487.047 88.9503 486.514C89.0446 486.465 89.1452 486.411 89.2459 486.356C90.0193 485.96 90.56 485.383 90.8619 484.731C95.1628 489.221 102.778 484.177 98.376 479.426C96.0117 476.871 72.4948 414.234 82.2285 366.518L121.264 362.049C128.401 361.424 141.681 360.18 141.681 360.18C141.681 360.18 144.932 351.009 145.862 348.058C145.932 347.84 146.001 347.617 146.076 347.4C147.007 348.819 147.944 350.232 148.887 351.645L153.704 360.109C153.704 360.109 224.795 359.082 242.225 359.179C242.521 359.179 243.923 377.498 243.288 385.565C242.005 401.764 240.641 417.952 238.742 434.107C237.53 444.452 234.608 454.597 230.256 464.131C223.382 479.192 203.423 493.507 183.961 493.507C171.847 493.507 144.473 485.026 140.486 483.313C136.5 481.6 134.124 486.275 137.757 488.145C145.117 491.933 165.403 499.968 183.961 499.968C210.913 499.968 231.259 477.86 233.755 474.691C258.297 473.528 283.399 474.066 307.909 476.17C309.965 476.344 311.738 474.202 311.078 472.566C302.275 450.785 295.578 428.318 291.34 405.536Z" fill="black"/>
</g>
<path d="M390.401 221.927L527.19 171.79V2H244.69L390.401 221.927Z" fill="white" stroke="black" stroke-width="4"/>
<mask id="mask1_47_1524" style="mask-type:luminance" maskUnits="userSpaceOnUse" x="240" y="0" width="290" height="225">
<path d="M390.401 221.927L527.19 171.79V2H244.69L390.401 221.927Z" fill="white" stroke="white" stroke-width="4"/>
</mask>
<g mask="url(#mask1_47_1524)">
<path fill-rule="evenodd" clip-rule="evenodd" d="M393.411 24.1429C398.051 8.62023 402.318 2.03879 410.561 -3.35642C418.271 -8.40289 429.526 -12.6413 445.948 -15.7374C463.053 -18.3167 463.538 -25.9842 467.827 -38.3078C469.078 -42.0126 475.278 -42.9984 477.954 -40.328C478.331 -40.6792 478.724 -41.0009 479.132 -41.2915C478.767 -43.0584 481.75 -48.1226 481.65 -49.8127C480.61 -67.4537 487.3 -76.3124 503.998 -79.6055C507.629 -80.322 532.295 -80.7437 535.836 -79.8994C551.314 -76.2082 566.552 -64.4888 564.22 -50.3711C569.079 -44.8944 573.835 -41.5518 581.331 -39.7872C593.004 -38.5087 587.14 104.134 566.866 189.593C558.167 226.259 350.167 163.851 359.566 145.487C358.234 142.121 360.662 138.422 359.566 134.945C358.773 132.43 356.741 131.389 355.719 128.898C354.28 125.393 355.845 120.691 357.465 117.114C358.129 115.331 356.243 113.412 355.719 111.593C353.233 103.013 358.925 103.769 363.028 98.0331C362.967 98.0154 361.9 93.9205 361.905 93.941C361.277 91.0175 362.851 87.2721 364.224 84.8318C365.152 83.1824 367.139 82.1501 369.114 82.3394C367.125 76.5156 364.61 71.6697 361.905 66.0588C357.121 56.1686 352.572 45.8224 345.703 36.8702C342.89 33.2045 345.162 29.8329 349.714 29.5831C364.449 28.7757 379.022 26.946 393.411 24.1429Z" fill="#D08B5B"/>
<path fill-rule="evenodd" clip-rule="evenodd" d="M416.413 25.3423L450.047 74.44C450.047 74.44 442.068 75.1269 438.839 76.4649C435.61 77.8029 420.784 94.0607 420.784 94.0607L418.428 103.013L424.01 110.231L421.833 114.763C421.833 114.763 420.28 111.692 416.413 109.309C412.546 106.926 404.018 103.013 404.018 103.013C404.018 103.013 406.852 101.705 406.852 100.17C406.852 98.6348 409.348 92.0849 404.018 89.6107C398.688 87.1365 371.144 81.346 371.144 81.346L343.23 30.5571L416.413 25.3423Z" fill="#EC7495"/>
<path fill-rule="evenodd" clip-rule="evenodd" d="M566.455 -39.4536L459.655 -23.2858L410.561 -3.35615L402.547 1.96939L450.047 74.4401L523.391 85.9826L542.077 127.847L538.263 175.038L418.947 162.767L367.479 157.492L355.381 199.622L357.567 216.954L360.745 225.743L488.337 255.455C488.337 255.455 553.308 250.023 564.825 250.023C576.342 250.023 660.785 257.257 660.785 257.257L680.322 255.455C680.322 255.455 723.549 216.158 730.254 202.172C736.958 188.185 751.456 103.167 751.456 103.167L749.86 90.1033L712.513 7.2013C712.513 7.2013 707.526 3.29501 701.238 -3.35615C694.95 -10.0073 566.455 -39.4536 566.455 -39.4536Z" fill="#9DDADB"/>
<path fill-rule="evenodd" clip-rule="evenodd" d="M373.159 80.2993C382.81 80.7222 392.473 82.7016 401.203 86.2879C404.776 87.7575 408.012 89.8792 408.96 93.3695C409.439 95.1519 409.322 96.9934 409.067 98.7937C408.875 100.157 408.827 101.898 407.453 102.821C407.219 102.977 406.969 103.096 406.708 103.184C409.929 104.437 412.996 105.944 415.721 107.496C418.212 108.915 420.773 111.101 421.923 113.567C422.019 113.287 422.115 113.026 422.21 112.777C424.169 107.781 427.188 103.689 431.942 100.938C432.482 99.241 438.276 91.937 443.657 92.2126C449.55 92.5111 454.291 92.8827 459.62 95.2203C461.563 95.1835 463.501 95.2065 465.417 95.28C465.747 95.2892 465.731 95.6754 465.417 95.7071C463.862 95.8775 462.308 96.0653 460.753 96.2857C457.059 96.796 453.375 97.4431 449.771 98.2467C445.448 99.2116 440.976 100.18 436.936 101.866C429.1 105.141 424.249 113.701 425.245 121.15C425.41 122.371 425.958 126.063 427.923 125.682C429.584 125.361 430.244 122.371 430.824 121.264C432.379 118.325 435.179 116.405 438.538 115.106C442.483 113.576 446.704 112.543 450.793 111.34C453.109 110.656 455.424 109.971 457.746 109.292C460.12 108.589 462.377 107.62 464.906 108.111C466.434 108.41 466.609 109.981 465.752 110.881C464.448 112.254 462.51 112.658 460.631 113.223C458.15 113.967 455.675 114.711 453.199 115.455C449.372 116.603 445.363 117.572 441.632 118.977L441.748 119.207C442.052 119.133 442.409 119.395 442.35 119.717C441.791 122.688 441.013 126.123 441.876 129.1C442.557 131.46 444.959 134.073 448.078 133.379C447.588 132.994 447.407 132.328 447.737 131.712C448.973 129.434 465.156 120.442 466.599 123.781C466.647 123.9 466.498 123.988 466.381 123.97C465.151 123.749 463.091 125.558 462.106 126.132C460.685 126.959 459.242 127.767 457.836 128.617C456.298 129.545 454.796 130.519 453.332 131.524C452.182 132.314 451.315 133.136 449.995 133.536C450.686 133.82 451.235 134.348 451.469 135.023C452.065 136.782 453.215 138.275 455.212 139.052C457.304 139.859 459.662 139.35 461.866 139.548C464.869 139.809 467.488 141.04 469.676 142.799C474.27 146.5 476.575 153.022 483.001 154.771C486.839 155.814 491.098 155.157 494.984 154.684C499.323 154.156 503.55 153.738 507.921 154.289C512.105 154.818 516.061 156.066 519.883 157.591C523.466 159.019 527.427 160.636 530.605 162.767C531.26 161.026 531.92 159.304 532.421 157.527C533.602 153.325 534.241 149.044 534.396 144.727C534.539 140.618 534.273 136.489 533.863 132.397C533.661 130.353 533.341 128.318 533.139 126.275C533.086 125.76 532.979 125.209 532.899 124.659C527.224 121.769 521.262 119.556 515.252 117.278C515.235 117.274 515.219 117.264 515.203 117.26C515.017 117.186 514.836 117.118 514.65 117.049C514.655 117.039 514.66 117.031 514.671 117.021C513.984 116.659 513.505 116.176 513.218 115.634C504.556 110.679 497.316 103.914 491.918 96.024C489.655 92.7174 487.478 89.2868 484.518 86.3894C481.367 83.2982 477.624 81.4612 472.992 80.5059C467.578 79.3858 461.999 78.7149 456.452 78.3337C453.423 78.1275 450.038 77.8055 446.736 77.8198C444.437 77.8331 442.185 78.003 440.119 78.4944C437.058 79.22 435.269 81.2274 433.347 83.2568C431.511 85.2045 429.685 87.1563 427.971 89.1862C426.347 91.11 424.814 93.0986 423.483 95.1835C422.684 96.4327 421.944 97.7191 421.321 99.0458C421.103 99.5147 420.816 100.047 420.683 100.534C420.549 101.025 420.794 101.545 420.155 101.545C422.791 101.576 424.542 107.245 421.923 107.112C418.24 106.927 416.389 103.118 417.11 99.7393C418.398 93.7106 425.35 86.4296 426.725 84.8872C429.765 81.4795 432.9 77.034 437.766 75.4496C437.835 75.4266 437.91 75.4041 437.979 75.3853C436.563 74.228 435.445 72.8415 434.375 71.4312C433.273 69.9799 431.958 68.3174 431.596 66.5953C431.367 65.4981 432.948 64.8731 433.699 65.8329C434.79 67.2336 435.317 69.0063 436.132 70.5453C436.962 72.1063 437.974 73.5804 438.772 75.1557C440.694 74.6459 442.77 74.4122 444.884 74.3341C442.217 71.2204 437.66 65.2129 437.111 64.4414C434.588 60.8684 432.187 57.1857 429.892 53.4975C427.412 49.502 425.287 45.3412 422.913 41.2998C421.566 39.0086 420.209 36.6981 418.713 34.4754C418.196 33.713 417.643 32.9507 417.015 32.2572C416.892 32.1199 416.738 32.0051 416.594 31.876C416.429 31.7979 416.259 31.7107 416.163 31.6652C415.301 31.2381 414.997 30.2461 414.391 29.6165C413.421 28.602 412.282 28.4826 410.823 28.4684C407.715 28.4408 404.595 28.5464 401.491 28.6199C396.929 28.7301 392.371 28.8863 387.814 29.093C386.436 29.1572 385.062 29.2215 383.683 29.295C377.055 29.6353 370.433 30.0803 363.826 30.6273C357.981 31.1091 352.136 31.8948 346.285 32.2714C354.206 48.5059 362.99 64.4464 372.935 79.8313C373.036 79.987 373.111 80.1431 373.159 80.2993ZM417.11 122.123C418.388 122.629 419.628 123.257 420.784 123.974C420.592 122.858 420.544 121.682 420.597 120.502C419.644 121.384 418.425 121.889 417.11 122.123ZM362.57 94.1966C362.66 94.2054 362.746 94.2467 362.788 94.3248C364.556 97.4706 363.816 100.984 360.93 103.45C359.418 104.736 356.123 106.187 356.23 108.3C356.32 110.008 358.476 111.441 359.397 112.851C360.254 114.164 360.573 115.606 359.887 117.031C359.008 118.853 356.554 119.579 355.713 121.37C354.648 123.643 356.378 126.385 357.592 128.364C358.721 130.197 360.18 132.029 361.148 133.967C367.638 136.865 382.363 142.128 384.136 142.422C386.297 142.785 388.464 143.129 390.637 143.451C394.805 144.075 398.983 144.654 403.173 145.164C405.558 145.453 407.948 145.738 410.339 145.963C412.426 146.156 414.779 146.417 416.461 145.063C419.852 142.326 417.952 137.738 415.806 134.973C415.763 134.918 415.763 134.867 415.779 134.821C413.757 134.413 411.739 133.935 409.727 133.6C405.856 132.957 401.959 132.415 398.057 131.933C390.04 130.945 381.969 130.293 373.91 129.637C371.913 129.471 371.892 126.762 373.91 126.923C385.489 127.837 397.125 128.704 408.55 130.629C411.414 131.106 414.257 131.648 417.084 132.259C418.42 132.544 419.852 132.989 421.252 133.003C421.337 133.003 421.423 133.003 421.508 132.998C424.249 132.925 424.649 130.9 423.142 129.214C422.956 129.007 422.764 128.801 422.567 128.604C419.905 125.866 416.589 124.038 413.171 122.146C409.343 121.696 405.526 120.695 401.778 119.96C392.526 118.141 383.273 116.323 374.016 114.509C372.201 114.151 372.972 111.744 374.788 112.098C381.815 113.471 388.842 114.844 395.87 116.217L406.154 118.229C408.209 118.628 410.776 119.432 413.193 119.722C414.385 119.864 415.54 119.882 416.583 119.671C419.953 118.982 420.124 115.349 418.67 113.191C417.041 110.766 413.964 109.25 411.233 107.877C406.5 105.494 401.464 103.781 396.545 101.806C395.672 101.641 394.799 101.475 393.926 101.31C388.847 100.346 383.044 99.8725 378.264 98.1048C376.832 97.5808 377.615 95.6336 379.03 95.6612C382.741 95.7305 386.622 96.869 390.247 97.5441C394.171 98.2789 398.1 99.0091 402.023 99.7393C402.417 99.8128 404.749 100.456 405.1 100.313C405.324 100.222 405.404 99.5515 405.478 99.1101C405.718 97.6589 405.893 96.1347 405.633 94.6784C405.058 91.4131 401.901 89.8792 398.707 88.6255C391.594 85.8378 383.795 84.0931 376.033 83.3946C374.245 83.2339 372.456 83.1333 370.656 83.0823C368.543 83.0272 366.802 82.7057 365.732 84.5014C364.05 87.3304 363.124 90.9681 362.57 94.1966ZM372.447 196.767C373.997 192.143 373.575 187.207 374.637 182.491C375.185 180.057 375.933 177.644 376.749 175.268C377.408 173.35 378.508 171.309 378.632 169.306C378.64 169.173 378.457 169.096 378.332 169.157C376.145 170.237 374.466 172.573 373.219 174.405C371.726 176.598 370.587 178.894 369.667 181.308C367.835 186.118 366.33 191.92 368.694 196.767C369.397 198.21 371.867 198.499 372.447 196.767ZM432.928 231.769C435.237 230.379 436.92 228.436 438.879 226.72C440.805 225.034 437.794 222.436 435.867 224.123C434.196 225.586 432.745 227.413 430.779 228.597C429.832 229.166 429.394 230.195 430.014 231.11C430.563 231.918 431.984 232.337 432.928 231.769ZM445.807 178.337C441.591 176.765 437.445 175.052 433.033 173.92C430.396 173.242 429.28 176.789 431.901 177.462C435.964 178.506 439.775 180.062 443.657 181.509C446.15 182.439 448.316 179.273 445.807 178.337ZM490.328 177.237C491.36 175.042 487.237 174.097 486.222 176.26C485.052 178.75 483.712 181.177 482.542 183.667C481.512 185.861 485.633 186.807 486.649 184.643C487.818 182.153 489.159 179.727 490.328 177.237ZM534.272 221.058C534.959 221.848 536.104 222.276 537.186 221.717C538.092 221.249 538.645 220.003 537.95 219.204C535.92 216.87 533.863 214.564 531.484 212.483C529.555 210.796 526.545 213.396 528.473 215.081C530.597 216.939 532.459 218.973 534.272 221.058ZM540.556 -24.8202C538.601 -23.6684 536.888 -22.269 535.218 -20.8293C533.277 -19.1553 536.289 -16.5578 538.23 -18.2318C539.637 -19.4451 541.057 -20.6768 542.705 -21.6477C543.658 -22.2089 544.085 -23.2527 543.469 -24.1611C542.917 -24.9749 541.506 -25.3795 540.556 -24.8202ZM476.624 34.3022C477.729 36.2113 478.724 38.0828 478.787 40.2527C478.854 42.6165 483.113 42.6179 483.045 40.2527C482.964 37.4132 481.75 34.9507 480.301 32.4478C479.076 30.3293 475.404 32.1924 476.624 34.3022ZM453.167 -13.1809C450.877 -14.4976 448.747 -11.3136 451.017 -10.0084C452.856 -8.9508 454.697 -7.89223 456.537 -6.83412C458.825 -5.51791 460.955 -8.70143 458.686 -10.0066C456.846 -11.0647 455.007 -12.1228 453.167 -13.1809ZM554.909 69.8389C555.3 72.1738 559.403 71.1749 559.016 68.8626C558.417 65.2887 557.687 61.7621 556.563 58.281C555.827 56.0031 551.72 56.9768 552.456 59.2578C553.58 62.739 554.311 66.2655 554.909 69.8389ZM569.841 111.925C572.583 111.875 572.583 108.201 569.841 108.251C567.361 108.296 564.922 108.859 562.529 109.374C559.867 109.948 561.002 113.49 563.661 112.917C565.684 112.481 567.744 111.963 569.841 111.925ZM575.354 196.702C576.295 197.097 577.262 197.453 578.213 197.829C580.12 198.581 582.025 199.334 583.93 200.088C587.898 201.66 591.864 203.236 595.827 204.818C603.759 207.986 611.752 211.042 619.704 214.175C627.812 217.37 635.899 220.608 643.976 223.862C647.781 225.395 651.616 226.871 655.442 228.364C658.714 229.64 662.758 231.87 666.35 232.08C666.535 232.091 666.597 231.889 666.491 231.786C665.134 230.455 662.97 229.68 661.186 228.815C659.365 227.931 657.509 227.099 655.661 226.255C651.81 224.495 647.954 222.749 644.066 221.051C636.288 217.655 628.496 214.284 620.701 210.918C612.752 207.484 604.813 204.027 596.794 200.715C593.018 199.156 589.239 197.601 585.458 196.051C583.409 195.212 581.36 194.374 579.31 193.537C578.425 193.175 577.548 192.786 576.643 192.462C575.441 192.033 574.527 192.121 573.286 191.856C571.263 191.425 570.388 193.644 571.941 194.611C573.219 195.406 573.892 196.087 575.354 196.702ZM603.785 234.375C604.222 233.458 603.307 232.344 602.298 232.115C601.089 231.84 600.12 232.474 599.678 233.398C598.511 235.848 596.848 238.096 594.707 239.995C592.794 241.691 595.804 244.29 597.719 242.592C600.401 240.213 602.328 237.431 603.785 234.375ZM624.702 175.402C626.644 173.728 623.632 171.13 621.691 172.805L616.171 177.566C614.23 179.24 617.242 181.838 619.183 180.164L624.702 175.402ZM681.33 167.639C685.298 168.643 689.926 169.566 692.632 172.487C692.764 172.63 692.986 172.446 692.907 172.304C689.443 166.11 679.51 163.937 672.633 161.767C667.769 160.232 662.778 158.959 657.745 157.821C658.248 152.868 656.861 147.56 656.379 142.631C655.864 137.369 655.445 132.093 655.23 126.815C655.01 121.43 654.957 116.009 655.162 110.623C655.367 105.257 656.174 99.9561 656.528 94.6077C656.562 94.0905 655.727 94.0657 655.547 94.4933C653.457 99.4564 652.564 104.954 651.884 110.187C651.183 115.578 650.951 120.954 651.04 126.376C651.133 131.952 651.509 137.513 652.024 143.071C652.269 145.705 652.552 148.336 652.82 150.968C653.025 152.977 653.119 154.97 653.594 156.914C650.559 156.272 647.516 155.664 644.483 155.073C634.813 153.19 625.101 151.443 615.471 149.408C610.743 148.409 606.084 147.212 601.378 146.149C596.946 145.148 592.269 143.935 587.719 143.489C586.096 143.329 585.889 145.245 586.964 145.895C590.662 148.135 595.573 149.695 599.844 150.948C604.13 152.206 608.586 153.111 612.98 154.043C622.142 155.987 631.392 157.577 640.627 159.232C649.85 160.886 659.09 162.527 668.209 164.568C672.6 165.551 676.977 166.537 681.33 167.639ZM703.075 69.3494C705.446 70.5503 707.587 67.3737 705.224 66.1769C702.133 64.6118 698.838 63.4356 695.517 62.2884C692.968 61.4085 691.871 64.9631 694.384 65.8315C697.369 66.8621 700.297 67.9432 703.075 69.3494ZM711.661 205.845C714.039 207.035 716.181 203.858 713.81 202.673C710.481 201.008 706.835 199.897 703.385 198.441C700.93 197.404 698.774 200.574 701.235 201.613C704.685 203.07 708.332 204.18 711.661 205.845ZM715.523 128.364C713.224 130.248 710.156 131.135 707.263 132.124C704.741 132.986 705.847 136.538 708.396 135.667C712 134.434 715.671 133.308 718.535 130.961C720.527 129.329 717.51 126.736 715.523 128.364ZM690.091 23.1383C687.564 23.9935 688.671 27.5453 691.224 26.6814C694.055 25.7234 696.979 24.9942 699.81 24.0362C702.336 23.181 701.23 19.6297 698.677 20.4931C695.846 21.451 692.923 22.1803 690.091 23.1383ZM645.228 -18.657C642.542 -19.0474 641.399 -15.5066 644.095 -15.1139C647.441 -14.6267 650.735 -14.0567 653.908 -12.9977C656.47 -12.1426 657.569 -15.6963 655.04 -16.5404C651.867 -17.5994 648.573 -18.1698 645.228 -18.657ZM630.404 83.1048C632.866 82.0605 630.706 78.8935 628.255 79.9328C625.672 81.0281 622.996 81.875 620.177 82.3925C617.494 82.8858 618.637 86.427 621.31 85.9356C624.482 85.3524 627.499 84.337 630.404 83.1048ZM616.403 25.7836C613.752 25.1572 612.631 28.7021 615.271 29.3267C619.916 30.4243 624.698 30.9952 629.377 31.972C632.044 32.5286 633.172 28.985 630.509 28.4294C625.831 27.4521 621.048 26.8821 616.403 25.7836ZM557.01 7.79573C554.314 8.22605 555.463 11.7664 558.142 11.3388C560.994 10.8837 563.884 10.8764 566.775 10.875C569.52 10.8741 569.515 7.20009 566.775 7.201C563.49 7.20238 560.248 7.27908 557.01 7.79573ZM363.305 26.9901C370.263 26.416 377.231 25.9567 384.21 25.6123C384.536 25.5981 384.855 25.5802 385.18 25.5659C385.217 25.5021 385.264 25.4419 385.313 25.3776C387.591 22.4935 389.268 19.6099 390.721 16.3488C392.111 13.2443 393.458 10.0438 395.598 7.24233C398.038 4.05055 401.334 1.55315 404.945 -0.61129C407.136 0.659454 409.169 2.14742 411.029 3.72448C412.987 5.38375 415.999 2.78624 414.041 1.12651C412.388 -0.27512 410.624 -1.56974 408.759 -2.73945C410.912 -3.86829 413.109 -4.92915 415.252 -5.9845C423.286 -9.93818 431.511 -13.5943 439.906 -16.9371C443.808 -18.4945 447.758 -19.8768 451.735 -21.2775C453.876 -22.0302 455.989 -22.9997 458.129 -23.8718C457.975 -25.1765 458.427 -26.637 459.588 -27.4958C460.445 -28.1249 461.11 -28.3591 462.132 -28.8041C462.361 -28.8735 462.5 -28.9148 462.564 -28.9378C462.516 -28.9286 462.377 -28.8919 462.149 -28.8276C461.605 -28.6113 461.563 -28.676 462.02 -29.0159C462.047 -29.7594 463.746 -31.33 464.134 -32.097C465.486 -34.7289 465.907 -37.512 467.903 -39.9093C470.655 -43.2113 475.276 -44.46 479.584 -43.3399C480.03 -47.3124 480.147 -51.4589 481.883 -55.0048C481.931 -55.1008 482.085 -55.1426 482.154 -55.0369C483.964 -52.3774 484.119 -49.4157 484.257 -46.3479C484.39 -43.4684 484.263 -40.5247 483.826 -37.6635C484.103 -37.4798 484.385 -37.3049 484.678 -37.1354C486.051 -36.3547 487.531 -35.7531 489.086 -35.3071C492.046 -34.4626 495.149 -34.0952 498.253 -33.9666C506.265 -33.6359 514.522 -34.334 522.401 -35.5188C530.371 -36.7175 542.588 -38.5177 549.679 -41.9575C554.359 -44.2257 558.676 -46.9955 563.053 -49.6775C561.466 -54.0863 561.061 -58.8257 562.658 -62.5503C562.85 -62.9957 563.659 -63.0784 563.814 -62.5503C564.814 -58.9957 565.107 -55.4227 566.438 -51.9094C566.459 -51.8589 566.481 -51.8034 566.502 -51.7533C566.917 -51.9962 567.332 -52.2355 567.748 -52.4743C568.706 -53.0208 570.01 -52.6116 570.585 -51.8314C579.78 -39.3352 594.339 -38.6188 609.629 -36.3864C626.361 -33.9436 643.178 -31.3075 659.266 -26.5267C674.651 -21.9521 689.355 -15.293 701.003 -5.34569C703.64 -3.09353 706.106 -0.693958 708.434 1.81125C706.182 2.05603 703.948 2.4372 701.744 3.03469C699.134 3.74194 700.255 7.2878 702.876 6.57734C705.709 5.80948 708.574 5.42968 711.468 5.24047C719.383 14.5807 725.554 25.1714 730.89 35.5959C741.126 55.5829 747.788 76.8682 750.854 98.5388C749.171 97.6685 747.457 96.8396 745.701 96.0685C743.261 94.998 741.108 98.1687 743.551 99.241C746.264 100.431 748.899 101.743 751.453 103.166C752.568 112.652 753 122.199 752.738 131.731C752.115 154.454 748.559 177.844 740.515 199.525C736.57 210.166 731.343 220.72 723.554 229.712C720.03 233.785 716.027 237.459 711.31 240.522C709.026 242.01 706.609 243.338 704.059 244.458C700.774 245.909 696.494 246.387 693.662 248.44C692.73 249.115 692.012 250.006 691.469 251.011C691.783 252.922 691.82 254.837 691.213 256.747C691.022 257.345 690.5 257.831 689.856 258.066C689.845 258.231 689.845 258.392 689.845 258.548C689.845 258.621 689.717 258.64 689.701 258.567C689.675 258.424 689.648 258.281 689.621 258.135C689.414 258.194 689.196 258.222 688.972 258.222C680.885 258.248 672.789 258.078 664.691 257.841C665.317 256.187 665.996 254.546 666.647 252.892C667.531 250.644 663.416 249.688 662.54 251.915C661.778 253.85 660.982 255.767 660.273 257.708C651.597 257.43 642.924 257.096 634.266 256.849C615.852 256.32 597.443 256.146 579.024 255.811C550.419 255.288 521.607 254.217 492.958 255.265C491.967 253.451 490.859 251.678 489.807 249.889C488.567 247.777 484.893 249.639 486.13 251.743C486.861 252.987 487.618 254.214 488.337 255.455C482.535 255.715 476.738 256.059 470.954 256.528C461.084 257.326 451.309 258.745 441.45 259.627C431.426 260.527 421.62 260.367 411.675 258.939C409.886 258.681 408.832 257.749 408.396 256.591C408.38 256.587 408.369 256.578 408.359 256.564C407.848 256.049 407.368 255.623 406.874 255.25C406.282 254.92 405.643 254.64 404.893 254.392C403.493 253.932 402.034 253.652 400.554 253.464C398.925 253.253 397.275 253.234 395.646 253.06C394.273 252.909 392.93 252.683 391.589 252.408C389.177 251.912 386.888 251.264 384.61 250.405C382.624 249.657 380.83 248.582 379.137 247.411C375.634 245.202 372.6 242.383 369.948 239.452C368.405 237.739 366.951 235.962 365.631 234.112C363.331 230.906 361.372 227.576 359.392 224.219C358.673 223.224 358.017 222.206 357.418 221.165C361.288 220.182 365.195 219.38 369.298 219.323C372.041 219.285 372.041 215.611 369.298 215.649C364.593 215.714 360.142 216.662 355.719 217.792C355.504 217.298 355.297 216.801 355.106 216.297C354.579 215.246 354.143 214.166 353.781 213.073C353.568 212.577 353.355 212.081 353.142 211.585C352.663 209.867 352.183 208.145 351.699 206.423C350.735 203.667 349.975 200.871 349.415 198.037C348.947 196.172 348.585 194.294 348.34 192.393C347.595 187.787 346.988 183.189 346.945 178.533C347.009 175.662 347.222 172.797 347.584 169.945C347.738 168.007 347.999 166.078 348.35 164.163C348.808 161.315 349.261 158.496 350.022 155.685C350.592 153.784 351.161 151.882 351.731 149.981C353.152 146.018 354.829 142.133 356.762 138.335C356.868 138.096 357.406 137.572 357.731 137.568C357.976 137.563 358.317 137.756 358.205 138.014C358.194 138.036 358.184 138.064 358.173 138.087C358.284 137.871 358.391 137.65 358.503 137.434C358.598 137.232 358.971 136.829 359.259 136.833C359.275 136.833 359.291 136.833 359.312 136.837C359.237 136.792 359.168 136.732 359.099 136.663C357.188 134.712 355.947 132.144 354.579 129.884C353.445 128.02 352.375 126.054 352.066 123.946C351.795 122.096 352.162 120.272 353.509 118.775C355.042 117.071 357.928 116.272 356.325 113.811C354.505 111.009 351.827 108.58 354.494 105.397C355.851 103.776 358.002 102.886 359.599 101.475C361.436 99.8449 362.31 97.6635 362.261 95.4361C362.149 95.4912 362 95.4642 361.947 95.3259C360.403 91.3029 361.521 86.8854 363.102 82.9675C363.965 80.8416 365.791 80.2579 367.915 80.1528C358.716 64.6531 350.108 48.905 342.436 32.7945C342.18 32.2664 341.93 31.7387 341.68 31.2101C341.307 30.4202 342.095 29.369 343.006 29.194C349.639 27.9402 356.549 27.5407 363.305 26.9901Z" fill="black"/>
</g>
<path d="M374.073 226.768L228.133 2.66064H2V364.582L374.073 226.768Z" fill="white" stroke="black" stroke-width="4"/>
<mask id="mask2_47_1524" style="mask-type:luminance" maskUnits="userSpaceOnUse" x="0" y="0" width="378" height="368">
<path d="M374.073 226.768L228.133 2.66064H2V364.582L374.073 226.768Z" fill="white" stroke="white" stroke-width="4"/>
</mask>
<g mask="url(#mask2_47_1524)">
<path fill-rule="evenodd" clip-rule="evenodd" d="M171.16 222.743C167.304 221.557 163.586 220.187 160.199 218.171C150.436 211.902 144.07 202.468 138.055 193.529C129.582 180.528 123.546 166.675 119.374 152.224C117.581 146.015 116.972 138.816 112.899 133.311C103.664 121.785 76.5869 123.278 62.2086 125.302C52.5801 126.771 50.59 136.067 48.4031 142.945C46.5822 148.66 45.3902 154.44 44.3896 160.297C42.0091 161.647 39.3218 162.744 36.7601 163.699C8.84321 171.084 3.93658 184.774 -6.72627 205.922C-24.7357 236.66 -73.6044 248.695 -80.9861 285.072C-85.7422 309.088 -72.2174 331.682 -58.2734 351.648C-45.2874 373.456 -27.158 383.923 1.71377 378.77C28.7939 373.53 54.8193 364.764 81.4229 357.99C94.3082 355.257 107.173 348.148 120.727 350.627C148.655 356.038 177.35 358.582 205.972 357.879C246.158 359.281 246.152 326.009 242.027 300.242C239.138 260.144 215.693 234.397 171.16 222.743Z" fill="#D08B5B"/>
<path fill-rule="evenodd" clip-rule="evenodd" d="M173.847 280.765C177.205 282.681 180.029 285.585 182.296 288.642C172.831 287.793 163.383 286.813 153.955 285.699C155.189 285.018 156.435 284.353 157.709 283.724C162.358 281.465 168.656 277.805 173.847 280.765ZM16.5911 304.902C14.8568 304.316 14.1857 302.035 13.5098 300.727C11.3905 296.626 9.45632 292.456 7.44402 288.316C15.0846 286.437 22.5148 284.352 30.4298 283.351C38.9405 282.275 47.5768 282.014 56.1661 282.256C73.564 282.746 90.8003 285.199 107.905 287.829C124.99 290.456 142.074 292.98 159.278 294.961C176.134 296.901 193.043 298.321 209.983 299.568C213.275 299.811 218.763 300.832 221.41 298.597C223.505 296.828 223.573 293.564 220.951 292.125C219.317 291.228 216.951 291.215 215.084 291.008C212.734 290.747 210.374 290.574 208.01 290.439C207.047 290.384 206.083 290.333 205.12 290.283C212.855 287.767 220.934 286.395 229.32 286.777C229.794 289.262 231.931 291.819 233.1 293.869C235.142 297.447 236.734 301.069 237.779 304.96C239.963 313.093 240.058 321.534 239.441 329.829C238.874 336.745 237.657 344.396 231.368 349.294C226.607 353.002 219.889 354.376 213.657 354.807C206.413 355.309 199.058 354.773 191.875 353.936C181.801 352.761 171.679 351.207 161.803 349.124C142.674 345.091 124.339 338.672 107.423 329.971C99.1737 325.728 91.3021 320.954 82.9394 316.872C74.4181 312.712 65.3509 309.485 55.8299 307.481C45.175 305.239 34.0365 304.282 23.0854 304.835C21.1851 304.931 18.4395 305.526 16.5911 304.902ZM4.24368 300.738C5.36331 303.872 6.22002 307.451 8.60983 310.084C10.977 312.694 14.5481 313.615 18.2477 313.847C22.7084 314.127 27.2215 313.948 31.692 314.091C40.8609 314.385 49.904 315.67 58.6692 318.026C66.8374 320.223 74.4198 323.649 81.7238 327.449C88.478 330.964 95.0341 334.737 101.79 338.241C99.9922 338.953 98.2144 339.722 96.4268 340.392C92.6776 341.796 88.9052 343.151 85.116 344.473C77.6437 347.078 70.1399 349.62 62.5592 351.981C47.2735 356.743 31.7364 360.904 16.0124 364.448C8.51301 366.138 0.907021 368.112 -6.88416 368.393C-13.7929 368.642 -20.1922 366.958 -25.7641 363.414C-37.321 356.064 -46.5156 345.456 -53.9484 334.991C-58.3642 328.774 -62.2179 322.242 -65.4053 315.488C-67.0175 312.072 -68.4795 308.604 -69.7954 305.096C-70.4127 303.448 -70.9981 301.792 -71.5524 300.127C-71.7962 299.396 -72.0298 298.662 -72.2612 297.927C-60.4436 294.816 -48.4857 292.007 -36.2471 290.449C-29.7128 289.616 -23.0914 289.195 -16.4856 289.256C-13.2066 289.286 -9.92949 289.439 -6.66788 289.731C-4.91228 289.888 -3.16377 290.09 -1.42283 290.341C-0.703354 290.444 0.0361023 290.596 0.777779 290.709C1.91073 294.058 3.053 297.404 4.24368 300.738ZM248.528 287.423C249.165 286.311 249.433 285.218 249.662 284.008C249.836 283.085 250.298 281.786 249.893 280.587C249.44 279.245 248.206 278.045 247.32 276.9C246.341 275.635 245.364 274.369 244.388 273.102C242.435 270.57 240.487 268.035 238.541 265.497C230.597 255.137 222.708 244.747 214.805 234.364C207.793 225.149 200.898 215.852 193.672 206.761C187.493 198.988 180.758 191.342 172.3 185.297C161.606 177.653 148.872 174.052 135.571 171.242C134.119 169.941 132.178 169.231 130.104 169.375C127.174 166.508 124.845 164.505 123.789 160.859C123.284 159.113 123.442 154.207 121.471 153.173C119.129 151.946 117.906 153.57 117.26 155.401C115.099 161.528 117.579 169.764 123.286 175.901C120.882 183.069 117.694 193.257 112.007 199C105.917 205.15 97.4954 207.064 88.4087 207.19C71.0801 207.431 53.7696 201.875 40.5522 192.246C36.5347 189.32 32.8036 186.051 29.4279 182.575C26.896 179.967 23.9008 175.943 21.9201 172.901C21.9201 171.715 20.2976 170.476 36.8158 169.518C53.3341 168.56 54.5868 149.049 54.9541 146.393C55.2525 144.237 56.5218 140.89 54.7605 139.132C54.013 138.385 52.479 138.265 51.5313 138.772C49.7441 139.729 49.157 142.178 48.5952 143.84C47.8082 146.169 45.2354 160.623 40.3603 162.297C38.078 163.08 35.4604 163.095 33.0461 163.239C30.0648 163.419 27.0772 163.551 24.1078 163.85C23.0126 163.96 21.8179 164.266 20.7374 164.275C20.0343 164.28 19.3091 163.986 18.6296 163.779C16.3362 163.08 14.0445 163.604 11.6818 163.878C-9.2078 166.3 -30.7169 171.827 -48.535 181.773C-64.2399 190.539 -75.3043 203.145 -82.6051 217.885C-90.0544 232.927 -94.3241 249.194 -97.9024 265.207C-99.1011 270.572 -100.148 275.962 -101.047 281.371C-101.916 286.597 -103.004 291.94 -103.264 297.219C-103.367 299.308 -102.788 301.248 -101.898 303.156C-100.895 305.304 -98.5246 306.15 -96.2511 307.153C-91.2606 309.355 -85.996 311.063 -80.572 312.273C-77.2584 317.473 -74.4698 322.876 -72.2287 328.484C-73.0601 329.905 -73.0775 332.027 -73.2373 333.408C-73.6339 336.848 -73.8036 340.305 -73.8391 343.76C-73.9106 350.685 -73.4279 357.603 -73.0495 364.517C-72.6658 371.53 -71.3902 399.199 -71.1824 402.578C-71.0207 405.202 -71.2384 408.874 -69.6355 411.204C-67.1725 414.786 -61.0933 414.665 -58.2776 411.761C11.6818 424.735 143.186 420.827 196.149 414.3C203.04 413.45 200.876 414.392 202.629 412.891C203.944 411.763 205.063 409.831 205.427 408.279C205.912 406.207 205.128 404.332 203.753 402.656C202.307 400.893 202.044 398.039 201.507 395.944C200.237 390.989 199.606 369.232 199.013 366.821C198.828 366.069 198.649 365.275 198.433 364.48C208.149 365.274 218.271 365.274 227.514 362.471C232.755 360.882 237.643 358.385 241.406 354.82C245.961 350.503 248.496 345.069 249.799 339.397C251.481 332.083 251.838 324.506 251.508 317.071C251.049 308.284 249.359 299.373 245.166 291.304C246.546 290.199 247.702 288.865 248.528 287.423Z" fill="black"/>
<path fill-rule="evenodd" clip-rule="evenodd" d="M169.409 66.8399C167.729 43.0087 158.784 15.9903 132.457 4.28969C74.4186 -15.8466 -1.89025 34.8623 -5.9303 86.6654C-7.33873 104.398 4.05017 123.775 24.8624 128.705C29.4897 134.004 36.4876 137.241 43.3946 140.05C125.661 176.948 178.802 146.954 169.409 66.8399Z" fill="#D08B5B"/>
<path fill-rule="evenodd" clip-rule="evenodd" d="M188.15 52.0157C185.243 45.0352 182.172 38.1082 178.941 31.235C175.795 24.5456 172.952 17.7117 169.045 11.3393C145.707 -26.7204 103.268 -26.7204 81.3302 -21.7474C69.9538 -25.9848 48.6452 -24.7895 36.7993 -20.9658C17.6219 -14.7757 -5.7555 9.57501 -13.7483 20.5155C-31.3954 44.6712 -42.4084 76.8219 -30.6863 104.735C-29.1542 108.383 -27.2002 111.762 -25.0002 115.018C-26.3861 116.642 -27.9811 118.179 -29.7481 119.691C-34.9989 124.182 -40.2497 128.525 -44.7857 133.59C-49.2933 138.624 -53.0302 143.977 -55.812 149.879C-61.0575 161.009 -61.3102 173.613 -54.3752 184.233C-48.3418 193.474 -37.6535 200.356 -25.6118 201.012C-24.9936 201.086 -24.3745 201.154 -23.7527 201.208C-22.1572 203.48 -20.2117 205.572 -17.9913 207.396C-11.1885 212.99 5.02757 215.859 14.2768 216.043C14.751 216.373 15.2296 216.702 15.7083 217.028C21.3677 220.878 27.3063 224.763 33.8034 227.502C38.2042 229.36 43.9744 230.912 48.5658 229.571C50.6487 230.774 54.0657 230.521 56.1309 229.537C59.5257 227.92 62.2867 225.008 63.9664 222.027C68.0392 214.79 67.0598 206.871 66.0139 199.14C64.8616 190.6 63.7536 182.056 62.6279 173.516C61.746 166.838 60.8242 160.049 58.4753 153.617C57.261 150.283 55.67 147.081 53.6136 144.069C53.6668 143.816 53.6579 143.563 53.5737 143.326C52.9001 141.433 51.5085 140.441 49.8599 139.154C49.6471 138.989 49.4344 138.82 49.2261 138.648C48.4018 137.836 47.5199 137.081 46.5759 136.441C46.2125 136.123 45.8535 135.801 45.4945 135.48C42.5119 132.778 39.6933 129.939 37.1893 126.897C34.7607 123.947 32.5669 120.867 30.4795 117.729C28.3567 114.538 26.9518 111.017 24.8334 107.849C24.6517 107.577 24.1908 107.523 23.9337 107.749C23.2778 108.335 22.8568 108.986 22.9366 109.672L22.6086 109.714C22.4845 108.68 21.381 107.837 19.883 108.063C17.6405 108.4 15.7969 108.527 13.8558 107.883C14.197 105.925 14.5117 103.964 14.8219 101.998C15.3892 98.3815 15.9165 94.7533 16.3686 91.1251C17.4633 91.3511 18.549 91.6768 19.6127 92.0906C21.1284 92.6768 22.5599 93.466 23.783 94.4353C24.9885 95.3931 25.8217 96.6842 27.293 97.3509C28.986 98.1133 31.0291 96.8528 30.5327 95.1977C29.5267 91.853 23.8318 89.9374 20.3085 89.3053C19.0986 89.0869 17.8621 88.9949 16.6256 89.0179C16.9048 86.6885 17.153 84.3591 17.3569 82.0259C17.4544 80.9225 17.543 79.8191 17.6272 78.7119C20.3661 77.9954 23.3 77.7809 26.1496 78.118C27.0892 78.7655 28.0287 79.4053 28.9372 80.0528C31.8224 82.114 34.6942 84.1867 37.5305 86.2977C37.7876 86.4855 38.0402 86.6732 38.2972 86.8648C39.9813 88.1176 42.082 86.8762 41.7984 85.1024C39.485 70.5666 49.7845 59.0039 61.8435 50.0464C75.1922 40.1273 99.4608 38.9723 115.336 21.791C122.647 23.0773 138.971 26.898 145.707 36.1773C155.138 49.1806 153.906 60.8314 154.624 75.5817C155.342 90.3435 157.168 105.741 153.29 120.296C149.713 133.717 140.03 145.184 125.006 150.456C124.634 150.586 124.257 150.713 123.88 150.835C116.111 153.368 107.633 154.084 99.4608 152.751C90.4155 151.272 82.8636 147.694 75.3384 143.291C74.9041 143.042 74.2703 143.556 74.5983 143.931C84.5167 155.295 103.999 159.092 119.453 156.092C120.175 155.95 120.893 155.797 121.607 155.628C118.15 164.222 118.846 173.654 123.348 182.022C126.056 187.056 130.187 191.412 135.217 194.849C140.761 198.634 147.639 201.691 151.486 207.005C155.009 211.875 153.963 217.346 147.932 220.158C146.412 220.87 145.827 223.173 147.333 224.184C147.909 224.568 148.486 224.958 149.075 225.342C152.452 227.544 161.728 231.682 163.23 231.835C176.57 233.203 185.54 224.736 191.288 214.748C198.038 203.024 196.283 188.738 188.846 177.573C182.881 168.616 171.132 159.789 175.803 148.452C177.47 144.402 180.878 140.951 184.188 137.832C187.964 134.28 192.024 130.955 195.645 127.277C199.243 123.626 202.434 119.653 204.216 115.07C206.817 108.373 205.523 101.132 203.569 94.4468C199.381 80.0949 193.943 65.9346 188.15 52.0157Z" fill="black"/>
<path fill-rule="evenodd" clip-rule="evenodd" d="M124.576 126.648C121.305 127.466 117.793 127.539 114.458 126.695C111.433 125.929 108.327 124.244 106.101 122.014C104.123 120.033 102.843 117.625 102.893 115.056C102.899 114.762 103.02 114.517 103.207 114.327C103.409 114.122 103.69 113.982 103.992 113.921C104.302 113.858 104.629 113.88 104.908 113.99C105.161 114.089 105.377 114.257 105.513 114.503C105.855 114.89 106.196 115.272 106.538 115.644C109.289 118.574 111.953 120.764 116.089 121.549C118.333 121.975 120.575 121.786 122.632 121.136C124.833 120.44 126.823 119.216 128.383 117.65C129.088 116.942 129.92 116.653 130.733 116.648C131.655 116.643 132.567 117.012 133.253 117.603C133.928 118.183 134.38 118.973 134.421 119.798C134.457 120.522 134.183 121.279 133.454 121.954C131.054 124.178 127.942 125.807 124.576 126.648ZM124.475 89.948C127.829 91.7066 132.939 95.8072 129.331 100.167C125.084 104.011 118.97 99.6035 115.957 97.6101C113.163 96.0653 110.024 100.039 112.616 101.842C134.389 115.748 143.224 90.4079 126.171 87.8804C124.294 87.6019 123.597 89.404 124.475 89.948ZM93.1029 82.21C92.025 81.6154 90.757 81.4112 89.3517 81.9628C88.2536 82.3936 86.3275 83.8297 84.9871 85.7177C84.0701 87.0093 83.4198 88.5245 83.5552 90.1027C83.5866 90.4693 83.4296 90.7395 83.182 90.9394C82.9864 91.0972 82.7039 91.2132 82.3721 91.2494C82.0904 91.2802 81.775 91.2524 81.5186 91.1834C81.0309 91.0521 80.7728 90.7792 80.6755 90.5563C79.737 88.4062 80.1413 86.0068 81.1932 83.8421C82.6127 80.9207 85.1906 78.4737 86.8795 77.6847C89.7697 76.3342 93.1793 76.272 96.0736 77.6479C98.5373 78.8189 100.078 80.7095 101.61 82.6366C101.936 83.0462 102.259 83.4529 102.593 83.8524C103.263 84.6529 103.329 85.4469 103.07 86.1277C102.783 86.8819 102.05 87.5184 101.134 87.8515C100.288 88.1594 99.3053 88.2027 98.4359 87.8864C97.7015 87.6192 97.0274 87.0982 96.6009 86.2143C95.8826 84.7257 94.6859 83.0834 93.1029 82.21ZM147.848 85.5219C147.109 85.8537 146.532 85.9538 145.713 85.7421C145.26 85.6248 144.812 85.3999 144.462 85.0976C144.115 84.798 143.864 84.4254 143.767 84.0121C143.527 82.9921 142.88 82.0374 141.958 81.4149C141.171 80.8829 140.176 80.601 139.073 80.76C137.882 80.9315 136.748 81.5901 135.967 82.3666C135.706 82.6264 135.501 82.9215 135.296 83.2146C134.911 83.7627 134.537 84.2723 134.006 84.6748C133.805 84.8279 133.501 84.934 133.208 84.934C133.088 84.934 132.967 84.9173 132.852 84.8862C131.667 83.8603 131.439 83.0821 131.477 82.3102C131.517 81.5007 131.887 80.6811 132.485 79.9165C133.887 78.1227 136.55 76.6519 138.347 76.3188C140.807 75.8627 143.251 76.4102 145.21 77.5958C147.226 78.8157 148.72 80.7097 149.186 82.8441C149.298 83.3582 149.25 83.9131 149.023 84.3942C148.802 84.8643 148.415 85.2669 147.848 85.5219ZM98.5297 63.0854C97.053 64.3265 95.3052 64.5188 93.5371 64.6898C92.5546 64.7857 91.7704 64.863 90.9986 65.0132C88.8773 65.4263 86.7805 66.0484 84.8676 66.9444C82.8678 67.8811 80.6886 69.0107 79.1208 70.4578C78.748 70.8021 78.3966 71.1635 78.0446 71.5256C77.7237 71.8558 77.4146 72.1737 77.0888 72.4802C76.7147 72.8323 76.3594 73.2013 76.006 73.5693C75.7875 73.8799 75.7443 73.9562 75.7003 74.0357C75.6341 74.1552 75.557 74.2889 75.469 74.4324C75.3486 74.6288 75.2074 74.8439 75.0596 75.0388C74.8137 75.3952 74.6817 75.4934 74.5677 75.5373C74.3785 75.61 74.199 75.6458 74.025 75.6264C73.8617 75.6082 73.7079 75.5406 73.5561 75.4299C72.7979 74.8773 72.5744 73.9704 72.5973 73.0078C72.632 71.5471 73.2566 69.9297 73.8324 68.9355C75.1711 66.6254 77.0277 64.2238 79.2602 62.4997C81.8077 60.5316 84.5948 59.0416 87.796 58.015C89.7853 57.3767 92.0886 56.7909 94.256 56.8649C95.816 56.9181 97.3053 57.3182 98.5352 58.3172C99.2905 58.9305 99.653 59.8028 99.653 60.6745C99.653 61.5635 99.2765 62.4578 98.5297 63.0854ZM150.851 74.4508C150.757 74.5836 150.627 74.6751 150.482 74.73C150.331 74.7876 150.161 74.8042 149.999 74.7806C149.837 74.7571 149.684 74.6939 149.562 74.5972C149.445 74.5046 149.356 74.3818 149.316 74.2313C148.336 70.5167 146.432 67.7529 142.369 65.9707C140.37 65.094 138.072 64.537 135.896 64.0928C135.264 63.9638 134.595 63.8801 133.923 63.7954C131.814 63.5298 129.69 63.2256 128.316 61.7553C127.487 60.8696 127.14 59.7369 127.336 58.701C127.521 57.7256 128.182 56.8313 129.383 56.2954C132.373 54.9617 136.089 56.2704 139.108 57.3852C139.332 57.4679 139.552 57.549 139.767 57.6274C142.72 58.7026 145.413 60.1218 147.627 62.1515C149.383 63.7618 151.011 66.1422 151.666 68.591C152.212 70.6283 152.083 72.7082 150.851 74.4508Z" fill="black"/>
</g>
</svg>
