<svg width="190" height="149" viewBox="0 0 190 149" fill="none" xmlns="http://www.w3.org/2000/svg">
<path fill-rule="evenodd" clip-rule="evenodd" d="M112.3 73.4156C110.999 72.6935 112.032 70.3014 114.811 70.6711C140.055 74.0259 126.975 107.661 94.7449 89.2033C90.9077 86.809 95.5545 81.5352 99.6903 83.5857L101.159 84.4614C105.933 87.292 113.83 91.5715 119.488 86.9793C124.829 81.1926 117.265 75.7497 112.3 73.4156ZM129.39 47.9595C134.756 44.418 141.486 47.028 145.437 50.615L146.133 51.2563C146.923 51.988 147.799 52.8404 148.325 53.7517C152.702 50.8683 158.639 48.8393 164.32 50.1564C169.829 51.4384 172.971 55.5066 172.025 59.8744C170.952 64.8414 166.093 68.1798 160.873 70.7613L159.392 71.4885C153.119 74.5819 147.249 77.6982 142.086 81.9503C141.243 82.6414 139.423 82.5499 138.871 81.63L138.426 80.8896L137.977 80.1496C134.314 74.1088 130.39 68.1076 127.168 61.9243C124.781 57.3419 124.006 51.5091 129.39 47.9595ZM69.037 50.4363C72.9685 46.8969 79.6284 44.5272 84.882 47.9598C90.4761 51.6161 89.3782 57.6626 86.8865 62.3258C83.8859 67.9502 80.3814 73.4505 77.0143 78.9674L76.2951 80.1499C75.9927 80.6431 75.6969 81.1364 75.4017 81.6297C74.8488 82.5501 73.0217 82.6417 72.1861 81.9501C67.1836 77.831 61.5237 74.7831 55.4784 71.7876L53.6536 70.8895C48.3474 68.2858 43.3311 64.9244 42.2398 59.8747C41.3062 55.5166 44.429 51.4229 49.945 50.1561C55.6384 48.8497 61.5619 50.8635 65.947 53.752C66.4697 52.8175 67.3696 51.9374 68.2195 51.1675L69.037 50.4363ZM75.4132 25.7754C77.3336 27.7038 75.283 30.8551 72.479 31.3535C69.0064 31.9714 65.4983 31.5956 62.0889 32.3619C58.9647 33.0642 55.972 34.4713 53.2943 35.8738C50.2405 37.4727 47.4279 39.2576 44.8436 41.2912C43.3065 42.501 41.3696 45.3671 38.9989 45.4205C36.642 45.4739 39.8056 39.7728 40.0673 39.2795C41.9258 35.7681 44.5365 32.5368 47.802 29.7064C54.2456 24.1211 67.8921 18.2278 75.4132 25.7754ZM147.371 24.232L148.98 24.5776C152.96 25.4335 157.209 26.4851 160.623 28.3306L160.892 28.4775L161.305 28.7113C165.592 31.1834 171.655 36.1161 168.619 40.4194C168.41 40.7159 167.965 40.7454 167.607 40.6243C163.568 39.2559 160.573 36.523 156.277 35.3798L155.485 35.1711C151.324 34.087 146.176 32.9471 141.697 33.0508C138.548 33.8425 134.295 33.1867 133.475 30.2216L133.438 30.0764L133.367 29.7692C132.895 27.7432 133.597 25.1604 136.305 24.184C140.016 22.8464 143.636 23.4416 147.371 24.232Z" fill="black"/>
</svg>
