<svg width="16" height="16" viewBox="0 0 16 16" fill="none" xmlns="http://www.w3.org/2000/svg">
<path d="M10.6668 5.60016L4.7501 11.5335C4.61676 11.6668 4.45832 11.7335 4.27476 11.7335C4.09165 11.7335 3.93343 11.6668 3.8001 11.5335C3.66676 11.4002 3.6001 11.2417 3.6001 11.0582C3.6001 10.8751 3.66676 10.7168 3.8001 10.5835L9.73343 4.66683H4.66676C4.47788 4.66683 4.31943 4.60305 4.19143 4.4755C4.06388 4.3475 4.0001 4.18905 4.0001 4.00016C4.0001 3.81127 4.06388 3.65283 4.19143 3.52483C4.31943 3.39727 4.47788 3.3335 4.66676 3.3335H11.3334C11.5223 3.3335 11.6805 3.39727 11.8081 3.52483C11.9361 3.65283 12.0001 3.81127 12.0001 4.00016V10.6668C12.0001 10.8557 11.9361 11.0139 11.8081 11.1415C11.6805 11.2695 11.5223 11.3335 11.3334 11.3335C11.1445 11.3335 10.9863 11.2695 10.8588 11.1415C10.7308 11.0139 10.6668 10.8557 10.6668 10.6668V5.60016Z" fill="black"/>
</svg>
