<svg width="637" height="464" viewBox="0 0 637 464" fill="none" xmlns="http://www.w3.org/2000/svg">
<path fill-rule="evenodd" clip-rule="evenodd" d="M145.634 210.618C152.261 206.62 155.548 200.075 158.02 198.961C159.84 198.141 159.806 192.485 163.453 190.483C168.346 187.797 183.94 185.799 189.614 185.426C195.059 185.067 204.53 185.82 209.639 187.473C218.159 190.229 221.558 195.486 225.31 202.258C225.31 202.258 141.081 213.365 145.634 210.618Z" fill="#EDB98A"/>
<path fill-rule="evenodd" clip-rule="evenodd" d="M269.228 215.288H134.565L87.9546 249.654L67.2663 394.102L96.6924 401.696L278.51 404.215L335.293 390.909L338.836 290.362L269.228 215.288Z" fill="#78E185"/>
<path fill-rule="evenodd" clip-rule="evenodd" d="M86.201 367.861C87.1392 367.473 88.1171 367.029 89.1883 366.998C91.0281 366.945 91.0306 364.572 89.1883 364.626C87.5814 364.672 86.1703 365.228 84.7563 365.813C83.1064 366.495 84.5577 368.541 86.201 367.861ZM89.1883 301.086C87.9328 301.086 86.6672 301.218 85.703 301.945C85.1298 302.378 85.1752 303.185 85.703 303.623C86.2679 304.091 87.156 304.054 87.7274 303.623C87.541 303.763 87.7256 303.624 87.7932 303.593C87.8094 303.586 87.8183 303.581 87.8226 303.578C87.8369 303.575 87.8512 303.572 87.8745 303.567C88.024 303.536 88.1718 303.506 88.3232 303.483C88.3257 303.489 88.6427 303.466 88.7171 303.463C88.8745 303.458 89.0312 303.458 89.1883 303.458C89.9647 303.458 90.6195 302.915 90.6195 302.272C90.6195 301.631 89.9619 301.085 89.1883 301.086ZM102.647 327.696C103.057 329.186 105.816 328.551 105.407 327.065C104.812 324.904 104.921 322.69 105.407 320.522C105.742 319.027 102.983 318.392 102.647 319.891C102.064 322.492 101.933 325.103 102.647 327.696ZM106.262 242.438C108.394 242.018 110.502 241.968 112.683 241.968C114.528 241.967 114.525 239.595 112.683 239.595C110.251 239.596 107.877 239.682 105.501 240.15C103.707 240.503 104.471 242.79 106.262 242.438ZM113.405 300.221C114.641 299.709 115.878 299.197 117.115 298.684C118.765 298.001 117.313 295.955 115.67 296.636L111.96 298.173C110.311 298.857 111.762 300.902 113.405 300.221ZM113.92 346.939C115.488 348.813 117.693 349.977 120.34 350.558C122.125 350.951 122.88 348.662 121.101 348.271C119.208 347.855 117.527 347.098 116.392 345.741C115.348 344.494 112.868 345.681 113.92 346.939ZM123.811 263.414C124.235 262.757 124.874 262.479 125.667 262.464C127.509 262.429 127.509 260.057 125.667 260.092C123.86 260.126 122.203 260.878 121.339 262.217C120.47 263.564 122.942 264.761 123.811 263.414ZM141.966 279.539C142.479 280.002 143.474 279.991 143.99 279.539C144.306 279.263 144.572 278.954 144.781 278.616C144.86 278.487 144.935 278.357 145.022 278.232C145.061 278.176 145.104 278.121 145.149 278.068C145.164 278.057 145.195 278.03 145.227 278.002C145.777 277.52 145.763 276.809 145.227 276.324C144.714 275.861 143.719 275.873 143.203 276.324C142.887 276.601 142.621 276.909 142.413 277.248C142.333 277.376 142.259 277.507 142.171 277.632C142.132 277.688 142.089 277.742 142.044 277.796C142.029 277.807 141.998 277.833 141.966 277.862C141.416 278.344 141.43 279.055 141.966 279.539ZM143.493 314.569C145.357 315.276 147.401 315.276 149.265 314.569C149.971 314.301 150.139 313.457 149.778 312.946C149.361 312.355 148.523 312.254 147.821 312.521C146.975 312.841 145.781 312.841 144.937 312.521C144.231 312.253 143.401 312.348 142.979 312.946C142.617 313.46 142.789 314.303 143.493 314.569ZM148.577 339.364C148.897 339.993 149.589 340.327 150.398 340.352C151.199 340.377 151.795 339.789 151.829 339.166C151.85 338.764 151.588 338.42 151.211 338.207C151.211 338.185 151.21 338.163 151.21 338.141C151.21 337.476 150.555 336.984 149.779 336.955C149.007 336.926 148.348 337.521 148.348 338.141C148.348 338.56 148.379 338.975 148.577 339.364ZM155.962 378.784C158.246 378.814 160.478 379.265 162.763 379.296C164.609 379.321 164.603 376.949 162.763 376.924C160.479 376.893 158.247 376.442 155.962 376.412C154.116 376.387 154.122 378.759 155.962 378.784ZM165.461 226.76C166.798 227.815 168.45 228.336 170.078 228.995C171.729 229.663 173.178 227.617 171.523 226.947C170.144 226.388 168.616 225.975 167.485 225.082C166.15 224.029 164.124 225.705 165.461 226.76ZM169.05 254.104C169.988 253.716 170.966 253.272 172.037 253.241C173.877 253.187 173.88 250.815 172.037 250.868C170.431 250.915 169.019 251.47 167.605 252.055C165.955 252.738 167.406 254.783 169.05 254.104ZM186.257 363.849C186.681 363.191 187.319 362.914 188.112 362.899C189.955 362.864 189.955 360.492 188.112 360.526C186.305 360.561 184.648 361.313 183.785 362.651C182.916 363.999 185.388 365.196 186.257 363.849ZM192.216 312.334C192.786 311.901 192.746 311.096 192.216 310.657C191.598 310.144 190.979 309.632 190.361 309.119C189.795 308.651 188.908 308.685 188.337 309.119C187.767 309.553 187.807 310.357 188.337 310.797C188.956 311.309 189.574 311.821 190.192 312.334C190.758 312.803 191.644 312.769 192.216 312.334ZM199.242 392.619C201.306 392.579 203.242 392.088 205.186 391.552C206.929 391.072 206.177 388.781 204.425 389.265C202.736 389.73 201.038 390.212 199.242 390.247C197.399 390.282 197.399 392.655 199.242 392.619ZM208.516 341.889C210.381 341.846 211.929 341.059 213.237 340.005C214.561 338.938 212.535 337.262 211.213 338.327C210.464 338.931 209.6 339.492 208.516 339.517C206.674 339.56 206.673 341.932 208.516 341.889ZM202.757 276.651C202.734 277.282 202.412 277.959 201.939 278.374C200.674 279.484 202.696 281.164 203.963 280.052C205.009 279.134 205.575 277.906 205.619 276.651C205.672 275.121 202.809 275.128 202.757 276.651ZM224.59 224.983C225.189 224.01 225.974 222.871 227.168 222.334C228.789 221.604 227.343 219.557 225.723 220.285C224.1 221.015 222.939 222.454 222.118 223.785C221.281 225.144 223.752 226.342 224.59 224.983ZM228.3 249.654C228.964 249.638 229.623 249.544 230.264 249.4C230.538 249.338 230.808 249.267 231.082 249.206C231.2 249.179 231.698 249.128 231.392 249.141C232.167 249.107 232.823 248.626 232.823 247.955C232.823 247.339 232.165 246.735 231.392 246.769C230.329 246.816 229.363 247.257 228.3 247.282C226.459 247.325 226.458 249.697 228.3 249.654ZM237.574 287.573H240.666C242.511 287.573 242.507 285.2 240.666 285.2H237.574C235.73 285.2 235.733 287.573 237.574 287.573ZM241.18 392.457C242.118 392.846 243.223 393.214 243.982 393.809C245.321 394.858 247.347 393.183 246.006 392.131C245.039 391.374 243.802 390.897 242.625 390.409C241.931 390.121 241.078 390.251 240.667 390.834C240.295 391.362 240.489 392.171 241.18 392.457ZM248.088 362.483C248.208 362.455 248.334 362.436 248.455 362.422C248.942 362.368 249.451 362.387 249.94 362.386C251.785 362.385 251.782 360.013 249.94 360.014C248.488 360.015 246.978 360.032 245.836 360.874C245.257 361.302 245.313 362.118 245.836 362.551C246.405 363.023 247.284 362.977 247.86 362.551C247.8 362.597 248.008 362.501 248.088 362.483ZM249.939 322.17C249.524 321.459 249.517 320.996 249.516 320.206C249.515 318.677 246.653 318.68 246.654 320.206C246.655 321.353 246.86 322.329 247.468 323.367C247.806 323.946 248.798 324.097 249.425 323.793C250.129 323.452 250.276 322.746 249.939 322.17ZM258.216 266.521C259.876 266.989 261.358 267.652 262.82 268.452C264.363 269.295 265.795 267.24 264.264 266.403C262.596 265.491 260.87 264.768 258.977 264.234C257.226 263.74 256.481 266.032 258.216 266.521ZM267.87 226.595C269.103 226.623 270.376 227.015 271.476 227.458C273.128 228.123 274.577 226.076 272.92 225.409C271.35 224.777 269.632 224.263 267.87 224.223C266.024 224.18 266.032 226.552 267.87 226.595ZM272.198 333.178C272.683 333.196 273.098 332.979 273.355 332.666C273.382 332.666 273.408 332.666 273.435 332.666C274.237 332.666 274.831 332.123 274.866 331.48C274.9 330.84 274.183 330.293 273.435 330.294C272.929 330.294 272.428 330.319 271.959 330.484C271.2 330.749 270.798 331.322 270.767 331.992C270.736 332.656 271.447 333.15 272.198 333.178ZM279.237 251.149C280.995 251.625 281.741 249.333 279.998 248.861C277.952 248.307 275.861 247.878 273.815 247.324C272.057 246.848 271.311 249.139 273.054 249.611C275.1 250.165 277.191 250.594 279.237 251.149ZM285.656 295.926C286.202 297.382 288.963 296.757 288.417 295.295C287.889 293.884 287.851 292.464 287.85 290.998C287.848 289.469 284.986 289.472 284.987 290.998C284.988 292.667 285.056 294.32 285.656 295.926ZM304.794 349.557C304.898 350.148 305.463 350.573 306.203 350.601C306.956 350.629 307.662 350.035 307.634 349.415C307.582 348.22 306.407 347.247 304.967 347.204C304.165 347.179 303.569 347.766 303.535 348.39C303.503 348.996 304.113 349.468 304.794 349.557ZM314.479 281.382C315.991 281.8 317.607 282.198 318.793 283.126C320.133 284.174 322.16 282.499 320.817 281.449C319.254 280.225 317.242 279.648 315.239 279.094C313.485 278.609 312.74 280.901 314.479 281.382ZM321.043 327.467C321.458 328.056 322.3 328.162 323 327.892C323.939 327.53 324.976 327.543 325.988 327.542C327.833 327.54 327.83 325.168 325.988 325.169C324.427 325.171 322.986 325.292 321.556 325.844C320.852 326.115 320.68 326.954 321.043 327.467ZM324.752 383.396C325.553 383.42 326.149 382.833 326.183 382.21C326.216 381.604 325.606 381.131 324.924 381.042C324.82 380.452 324.255 380.026 323.515 379.999C322.761 379.97 322.056 380.564 322.084 381.185C322.136 382.379 323.31 383.352 324.752 383.396ZM63.9781 392.365C64.4644 390.915 65.5771 389.744 66.418 388.439C66.6999 387.999 66.7979 387.726 66.9507 387.404C67.1583 387.748 67.5611 388.007 68.1669 388.007C69.329 388.008 70.6883 387.946 71.7728 388.358C72.478 388.626 73.3088 388.531 73.7307 387.932C74.0931 387.419 73.92 386.576 73.2172 386.309C71.6189 385.702 69.9008 385.636 68.1669 385.635C67.7386 385.635 67.4145 385.766 67.1855 385.962C66.5228 378.442 66.5393 370.916 67.1661 363.39C67.8348 355.348 69.3737 347.466 70.9838 339.528C71.7635 335.679 72.7761 331.791 72.5793 327.871C72.3825 323.977 70.3681 320.348 71.7957 316.442C72.3682 314.876 73.3485 313.441 73.9854 311.893C74.6688 310.227 74.608 308.581 74.2967 306.855C73.6562 303.341 72.5939 299.869 74.2935 296.438C75.0445 294.916 76.2614 293.558 76.8478 291.986C77.5777 290.032 77.4775 287.87 77.5992 285.845C77.8461 281.759 77.9105 277.646 78.3187 273.568C78.5009 271.742 78.898 270.01 79.8032 268.334C80.673 266.721 81.9644 265.253 82.5404 263.542C83.1129 261.858 83.163 260.082 83.4707 258.359C83.7927 256.538 84.2972 254.744 84.977 252.994C87.6033 246.221 92.4156 240.136 98.1011 234.861C104.144 229.253 111.368 225.031 119.036 221.096C123.068 219.026 127.1 216.957 131.129 214.888C131.215 215.276 131.513 215.633 132.087 215.792C133.6 216.21 135.216 216.608 136.402 217.536C137.741 218.584 139.768 216.909 138.426 215.859C137.025 214.763 135.265 214.186 133.474 213.679C135.31 212.72 137.166 211.727 139.237 211.173C141.052 210.687 143.728 211.111 145.199 210.008C146.354 209.139 146.719 207.529 147.163 206.349C147.717 204.884 148.197 203.339 148.901 201.915C149.381 200.943 150.079 200.009 150.959 199.255C151.345 198.022 152.054 196.895 153.306 196.21C156.583 194.413 160.609 196.198 162.051 198.76C163.242 198.757 164.498 198.974 165.657 199.033C168.04 199.157 170.427 199.214 172.813 199.208C177.482 199.196 182.155 198.944 186.785 198.431C195.065 197.512 203.097 195.658 211.237 194.214C211.284 194.125 211.337 194.036 211.402 193.947C213.155 191.51 217.524 191.922 220.276 192.844C221.456 193.238 222.658 193.737 223.334 194.662C224.05 195.062 224.669 195.549 225.08 196.062C225.932 197.12 226.59 199.255 228.319 199.433C229.456 199.549 230.612 199.368 231.768 199.504C233.213 199.67 234.508 200.092 235.843 200.572C246.005 204.228 256.51 208.294 267.537 209.711C270.124 210.043 272.757 210.387 275.004 211.588C276.829 212.564 278.239 213.904 279.745 215.177C281.212 216.416 282.421 216.965 284.514 217.187C287.055 217.457 289.255 218.038 291.112 219.568C292.654 220.84 293.66 222.466 294.869 223.942C296.1 225.449 297.907 226.297 299.782 227.172C304.215 229.241 308.344 231.741 311.94 234.739C319.514 241.062 324.101 249.187 328.724 257.104C333.723 265.669 338.395 274.336 341.637 283.482C344.814 292.461 346.704 301.698 347.577 311.021C348.496 320.804 348.625 330.626 349.391 340.415C349.773 345.304 350.063 350.2 350.357 355.093C350.643 359.927 351.062 364.769 350.994 369.609C350.865 378.965 348.607 388.35 344.661 397.11C343.677 399.29 342.586 401.44 341.423 403.557C340.403 405.416 336.914 405.209 335.819 403.557C335.569 403.177 335.372 402.786 335.207 402.389C332.345 402.409 329.454 402.225 326.61 402.445C321.586 402.833 316.552 403.05 311.514 403.308C301.546 403.821 291.56 404.162 281.588 404.633C280.62 404.679 279.653 404.725 278.686 404.773C285.792 386.543 284.87 366.836 285.995 347.877C286.085 346.349 283.222 346.358 283.132 347.877C282.003 366.917 282.965 386.675 275.607 404.934C272.753 405.094 269.902 405.29 267.061 405.576C264.764 405.805 262.456 406.074 260.138 405.98C257.508 405.876 254.939 405.378 252.373 404.945C247.711 404.159 243.221 404.515 238.541 404.998C233.535 405.517 228.512 405.805 223.474 405.986C203.301 406.718 182.993 407.385 162.827 406.267C157.947 405.997 153.077 405.618 148.229 405.102C143.234 404.571 138.293 403.678 133.302 403.171C128.382 402.673 123.859 404.04 118.997 404.292C114.038 404.55 108.946 403.693 104.033 403.201C102.431 403.04 100.826 402.883 99.2217 402.728C101.288 390.992 102.462 379.168 103.603 367.349C103.75 365.825 100.887 365.838 100.741 367.349C99.6092 379.076 98.4607 390.812 96.3979 402.455C87.8913 401.635 79.3764 400.805 70.9584 399.527C68.5612 399.165 66.1783 398.575 64.7435 396.802C63.6812 395.488 63.4661 393.878 63.9781 392.365Z" fill="black"/>
<path fill-rule="evenodd" clip-rule="evenodd" d="M128.567 143.527C129.335 137.918 128.341 126.194 128.274 125.481C127.853 120.978 130.393 103.197 135.195 104.835C143.251 99.5387 153.981 98.3691 164.013 97.8104C184.853 96.6498 207.023 99.3142 223.115 110.962C231.073 117.011 238.821 125.809 238.198 134.97C245.429 143.654 255.622 155.565 246.613 165.716C243.551 168.959 238.684 170.167 234.837 172.623C227.099 177.807 222.245 185.246 214.433 190.399C193.739 205.843 158.6 209.07 138.268 191.503C122.545 178.78 125.087 159.746 127.853 143.527C129.712 132.622 127.067 154.469 128.567 143.527Z" fill="#EDB98A"/>
<path fill-rule="evenodd" clip-rule="evenodd" d="M191.853 74.0242C186.279 73.0901 180.556 72.5089 174.864 72.6838L174.426 72.698C170.143 72.8402 164.72 73.1546 160.984 75.2228C160.769 75.0437 160.423 74.9518 160.11 75.076C155.67 76.836 150.787 78.1085 146.113 79.3729C141.46 80.6311 136.633 81.4617 131.756 81.7965C129.921 81.9226 128.351 83.5681 129.513 85.044C129.789 85.3956 130.058 85.7509 130.326 86.107C129.878 86.0682 129.429 86.0282 128.981 85.9905C127.505 85.8671 126.031 87.1752 126.118 88.3685C126.173 89.119 126.271 89.8607 126.415 90.5934C125.853 90.5836 125.294 90.6536 124.754 90.8431C122.021 91.8018 122.211 94.506 122.416 96.5634C122.699 99.4185 123.985 102.443 126.372 104.579C124.59 106.117 123.328 107.953 122.575 110.134C122.029 111.726 121.725 113.423 121.875 115.08L121.923 115.577C122.109 117.375 122.477 119.367 124.036 120.661C124.835 121.328 125.821 121.572 126.76 121.494C126.192 125.64 125.828 129.809 125.485 133.964L125.324 135.95C124.56 145.552 123.985 155.216 124.135 164.834C124.275 173.822 126.413 182.546 133.051 189.844C139.096 196.49 147.775 201.388 157.594 203.251C162.886 204.256 168.288 204.327 173.643 203.687C176.239 203.375 178.853 202.898 181.316 202.145C184.044 201.308 186.004 200.078 187.839 198.233C188.707 197.358 188.29 195.496 186.561 195.671C183.947 195.934 181.561 196.252 179.055 196.894L178.696 196.988C176.2 197.652 173.615 198.147 171.005 198.358C165.66 198.788 160.233 198.355 155.113 197.008C146.776 194.814 139.596 189.924 134.993 183.78C129.53 176.497 128.913 168.229 128.992 159.855C129.076 150.666 129.436 141.471 130.023 132.291L130.123 130.761C130.434 126.037 130.734 121.311 130.998 116.584C131.08 115.101 131.205 113.606 131.43 112.127C133.49 111.124 135.336 109.743 136.539 108.037C138.956 108.868 141.499 109.467 143.838 109.944C149.255 111.051 154.88 111.32 160.395 110.626C161.882 111.137 163.399 111.586 164.94 111.972C165.356 112.125 165.772 112.276 166.188 112.423C169.902 113.743 173.669 114.861 177.589 115.679L178.552 115.879C180.615 116.301 182.855 116.717 185.051 116.848C185.411 116.963 185.801 117.061 186.226 117.147C188.225 117.55 190.3 117.678 192.349 117.536C194.345 117.396 195.788 115.721 194.688 114.152C193.884 113.007 193.074 111.866 192.256 110.727C195.102 111.712 198.04 112.53 201.004 113.224C203.996 113.924 207.03 114.514 210.069 115.057C211.694 115.344 213.325 115.599 214.946 115.887C216.107 116.091 217.888 116.198 218.835 116.833C219.881 117.53 220.177 119.155 220.574 120.157C221.095 121.459 221.584 122.767 222.03 124.089C222.919 126.728 223.647 129.406 224.211 132.111C224.776 134.818 225.154 137.552 225.365 140.295C225.575 143.035 225.483 145.793 225.822 148.521C226.004 149.968 227.875 150.713 229.256 149.701C229.419 149.583 229.582 149.463 229.744 149.342L229.985 149.159C231.167 148.269 232.313 147.326 233.259 146.264C233.43 146.069 233.595 145.864 233.748 145.657C233.773 145.657 233.795 145.651 233.82 145.636L234.082 145.472C236.969 143.687 241.794 141.359 244.609 144.325C245.507 145.27 245.966 146.473 246.347 147.633L247.016 149.71C247.449 151.066 247.856 152.43 248.095 153.817C248.634 156.925 248.362 160.507 245.788 162.998C244.759 163.995 243.342 164.706 241.761 164.893C240.878 164.994 240.007 164.869 239.132 164.777C238.243 164.686 237.387 164.834 236.497 164.763C235.083 164.647 234.466 166.053 234.994 166.936C235.28 167.411 235.616 167.82 235.997 168.167C235.691 168.386 235.398 168.624 235.116 168.873C234.28 169.095 233.531 169.573 232.97 170.204C232.516 170.714 232.281 171.269 232.241 171.853C232.192 171.998 232.149 172.146 232.109 172.298L231.343 173.33C231.175 173.557 231.007 173.78 230.839 174C228.889 176.55 226.725 178.709 224.036 180.743C221.448 182.7 218.638 184.453 216.207 186.552L215.92 186.802C213.653 188.786 211.263 191.188 212.15 194.073C212.379 194.814 213.625 195.348 214.439 194.847C217.056 193.233 218.374 190.677 220.595 188.72C222.88 186.704 225.411 184.892 227.703 182.881C229.871 180.983 231.581 178.833 232.87 176.467C233.384 176.939 234.134 177.274 235.173 177.404C236.958 177.627 238.622 176.758 239.4 175.474C239.9 175.658 240.411 175.824 240.925 175.954C243.631 176.642 245.334 174.142 244.313 172.295C243.767 171.304 243.085 170.444 242.239 169.721C244.885 169.418 247.577 168.283 249.316 166.865C253.678 163.304 254.278 157.951 253.296 153.192C252.775 150.668 251.876 148.115 250.708 145.745C250.505 145.333 250.286 144.918 250.048 144.509C250.18 144.506 250.315 144.459 250.401 144.367C251.19 143.471 252.15 142.739 252.736 141.736C253.275 140.817 253.875 139.886 254.3 138.928C255.174 136.968 255.603 134.756 255.888 132.683C256.478 128.439 256.249 124.223 255.467 120.006C254.136 112.824 250.919 105.95 246.181 99.9193C246.439 99.8067 246.686 99.6708 246.917 99.5101L247.031 99.4276L247.215 99.2889C248.568 98.2726 248.451 96.3679 247.215 95.3387L246.825 95.0138C246.331 94.6062 245.905 94.2832 245.107 93.8393C244.989 93.7738 244.869 93.7121 244.747 93.6546C245.165 93.0135 245.31 92.2638 245.019 91.4368C244.005 88.5556 239.013 88.6576 235.85 89.914C232.35 87.3196 228.468 85.0674 224.262 83.2437C214.243 78.9023 202.914 75.8746 191.853 74.0242ZM243.642 149.909C241.771 149.402 239.286 150.466 237.604 151.107C235.473 151.919 233.659 153.12 231.902 154.39C231.027 155.024 230.871 156.062 231.088 156.949C231.11 157.038 231.131 157.13 231.156 157.222C231.388 158.168 232.659 158.912 233.784 158.885C236.137 158.832 237.258 157.145 238.59 155.715C238.747 155.946 238.943 156.16 239.186 156.32L239.35 156.427C239.903 156.776 240.512 157.056 241.243 157.029C241.76 157.008 242.256 156.898 242.714 156.7C243.856 156.199 244.359 154.971 244.049 153.972C243.856 153.343 243.414 152.851 242.835 152.51L243.051 152.387C243.512 152.12 243.933 151.839 244.261 151.425L244.335 151.326H244.306C244.663 150.816 244.431 150.122 243.642 149.909Z" fill="black"/>
<path fill-rule="evenodd" clip-rule="evenodd" d="M155.27 179.75C157.906 180.383 160.735 180.44 163.421 179.786C165.858 179.194 168.361 177.889 170.154 176.163C171.747 174.63 172.779 172.767 172.739 170.778C172.734 170.551 172.636 170.361 172.485 170.214C172.323 170.055 172.096 169.947 171.853 169.899C171.604 169.851 171.34 169.868 171.115 169.953C170.911 170.029 170.737 170.159 170.628 170.35C170.352 170.65 170.078 170.945 169.802 171.233C167.586 173.501 165.44 175.196 162.107 175.804C160.299 176.134 158.493 175.987 156.836 175.484C155.063 174.945 153.459 173.998 152.203 172.785C151.635 172.238 150.965 172.014 150.309 172.01C149.567 172.006 148.832 172.292 148.279 172.749C147.736 173.199 147.371 173.809 147.338 174.448C147.31 175.009 147.53 175.595 148.117 176.117C150.051 177.838 152.558 179.099 155.27 179.75ZM155.351 151.344C152.649 152.705 148.532 155.879 151.439 159.254C154.86 162.229 159.786 158.818 162.214 157.275C164.465 156.079 166.994 159.154 164.905 160.551C147.365 171.314 140.246 151.7 153.985 149.744C155.497 149.528 156.059 150.923 155.351 151.344ZM180.626 145.355C181.494 144.895 182.516 144.737 183.648 145.164C184.533 145.497 186.084 146.609 187.164 148.07C187.903 149.07 188.427 150.242 188.318 151.464C188.293 151.748 188.419 151.957 188.619 152.112C188.776 152.234 189.004 152.323 189.271 152.352C189.498 152.375 189.752 152.354 189.959 152.3C190.351 152.199 190.559 151.988 190.638 151.815C191.394 150.151 191.068 148.294 190.221 146.618C189.077 144.357 187 142.463 185.64 141.852C183.311 140.807 180.564 140.759 178.233 141.824C176.248 142.73 175.007 144.194 173.772 145.685C173.51 146.002 173.249 146.317 172.98 146.626C172.441 147.246 172.387 147.86 172.596 148.387C172.827 148.971 173.417 149.464 174.155 149.722C174.837 149.96 175.629 149.993 176.329 149.749C176.921 149.542 177.464 149.138 177.808 148.454C178.386 147.302 179.351 146.031 180.626 145.355ZM136.521 147.918C137.116 148.175 137.581 148.253 138.241 148.089C138.606 147.998 138.967 147.824 139.249 147.59C139.529 147.358 139.731 147.07 139.809 146.75C140.002 145.96 140.523 145.221 141.266 144.74C141.901 144.328 142.702 144.11 143.591 144.233C144.55 144.365 145.464 144.875 146.093 145.476C146.303 145.677 146.468 145.906 146.634 146.133C146.944 146.557 147.245 146.951 147.673 147.263C147.835 147.381 148.079 147.463 148.316 147.463C148.412 147.463 148.51 147.45 148.603 147.426C149.557 146.632 149.741 146.03 149.71 145.433C149.678 144.806 149.38 144.172 148.898 143.58C147.768 142.191 145.623 141.053 144.176 140.795C142.193 140.442 140.225 140.866 138.646 141.784C137.022 142.728 135.818 144.194 135.443 145.846C135.353 146.244 135.391 146.673 135.574 147.046C135.753 147.409 136.064 147.721 136.521 147.918ZM176.254 130.552C177.443 131.513 178.852 131.662 180.276 131.794C181.068 131.868 181.699 131.928 182.321 132.045C184.03 132.364 185.719 132.846 187.261 133.539C188.872 134.264 190.627 135.139 191.89 136.259C192.191 136.525 192.474 136.805 192.757 137.085C193.016 137.341 193.265 137.587 193.527 137.824C193.829 138.097 194.115 138.382 194.4 138.667C194.576 138.907 194.611 138.967 194.646 139.028C194.699 139.121 194.761 139.224 194.832 139.335C194.929 139.487 195.043 139.654 195.162 139.804C195.36 140.08 195.467 140.156 195.559 140.19C195.711 140.247 195.856 140.274 195.996 140.259C196.127 140.245 196.251 140.193 196.373 140.107C196.984 139.679 197.164 138.978 197.146 138.232C197.118 137.102 196.615 135.85 196.151 135.08C195.072 133.292 193.577 131.434 191.778 130.099C189.726 128.576 187.48 127.423 184.901 126.628C183.299 126.134 181.443 125.68 179.697 125.738C178.44 125.779 177.24 126.089 176.249 126.862C175.641 127.337 175.349 128.012 175.349 128.686C175.349 129.375 175.652 130.067 176.254 130.552ZM134.102 139.349C134.178 139.452 134.282 139.523 134.399 139.565C134.521 139.61 134.657 139.623 134.788 139.605C134.918 139.586 135.042 139.537 135.141 139.463C135.235 139.391 135.306 139.296 135.338 139.179C136.128 136.304 137.662 134.165 140.935 132.786C142.546 132.107 144.397 131.676 146.15 131.332C146.66 131.232 147.198 131.168 147.74 131.102C149.439 130.896 151.15 130.661 152.257 129.523C152.924 128.837 153.205 127.961 153.046 127.159C152.897 126.404 152.365 125.712 151.397 125.297C148.988 124.265 145.995 125.278 143.562 126.14C143.382 126.204 143.205 126.267 143.031 126.328C140.652 127.16 138.483 128.259 136.699 129.83C135.284 131.076 133.973 132.918 133.445 134.814C133.006 136.391 133.109 138.001 134.102 139.349Z" fill="black"/>
<path fill-rule="evenodd" clip-rule="evenodd" d="M147.773 184.54C151.105 182.08 154.84 177.133 159.628 181.047C160.811 182.153 161.291 184.632 163.101 185.118C165.506 185.765 167.889 183.656 168.708 182.037C172.061 173.041 158.202 170.574 150.306 172.027C146.449 173.34 143.608 178.624 143.437 181.382C143.326 183.235 145.219 185.96 147.773 184.54ZM122.634 170.674C122.667 170.554 122.712 170.446 122.767 170.348C124.241 169.886 125.407 170.357 126.127 171.237C126.104 171.455 126.025 171.677 125.975 171.894C126.531 172.865 127.033 174.066 127.787 174.905C127.935 174.914 128.09 174.901 128.238 174.866C140.73 175.947 134.631 165.115 147.301 162.424C157.095 161.085 174.797 162.619 179.417 171.068C183.061 184.563 201.589 175.159 207.672 168.141C214.163 161.754 218.36 153.949 222.407 146.375C223.262 144.772 225.931 145.919 225.64 147.456C229.381 153.675 229.256 161.145 230.183 167.958C231.758 181.55 233.294 200.611 218.056 208.91C198.203 227.508 148.627 234.071 125.729 216.983C117.802 202.859 118.779 185.627 122.634 170.674Z" fill="black"/>
<path fill-rule="evenodd" clip-rule="evenodd" d="M135.674 129.292C127.276 129.292 122.483 130.789 120.727 130.905L120.674 130.909C119.944 130.947 119.289 130.998 118.601 131.218C116.073 132.025 115.661 134.223 117.136 135.608C117.24 138.473 116.785 141.822 117.565 144.697C118.528 156.816 125.405 158.862 129.314 159.608C131.277 159.983 133.603 160.132 135.688 159.737C139.244 159.627 142.76 158.704 145.769 157.097C149.958 154.858 153.07 151.416 154.08 147.331C154.558 145.383 154.782 143.357 154.521 141.377L154.483 141.105C155.845 140.565 157.423 140.463 159.049 140.415C159.826 140.392 160.592 140.371 161.336 140.399C162.064 140.466 162.782 140.556 163.503 140.678C164.29 140.875 165.034 141.2 165.72 141.714L165.767 142.465C165.896 144.341 166.193 146.223 166.652 148.063C167.329 150.779 168.417 153.372 170.734 155.298C171.518 156.269 172.488 157.136 173.667 157.886C177.946 160.617 183.76 161.619 189.096 161.242C199.929 160.476 206.191 153.348 207.634 150.302L207.72 150.117C208.763 147.853 209.593 144.914 212.887 144.427L213.588 144.323C215.091 144.089 216.478 143.764 217.359 142.548C217.746 142.018 217.945 141.424 217.993 140.819C218.507 140.852 219.021 140.883 219.533 140.913C223.615 141.629 248.098 142.235 250.052 142.235C250.052 142.235 253.809 143.546 255.395 142.531C256.494 141.825 256.856 140.884 256.25 139.818C255.337 138.214 251.125 137.249 249.254 136.944C249.254 136.944 219.069 137.151 216.896 136.81C215.552 135.661 213.147 135.818 211.138 135.637C209.475 134.654 207.148 133.995 205.31 133.555C204.935 133.437 204.565 133.323 204.204 133.216C200.834 132.222 197.332 131.695 193.776 131.412C190.11 131.123 186.432 131.254 182.787 131.668C181.251 131.841 179.729 132.064 178.218 132.356C175.512 132.652 172.822 133.139 170.115 133.716L169.574 133.833C166.723 134.452 163.794 134.988 160.844 134.568C158.442 134.228 156.132 133.462 153.917 132.634L153.628 132.525C148.759 130.683 141.153 129.292 135.674 129.292ZM178.511 136.03C180.307 135.703 181.075 137.999 179.272 138.327C177.996 138.56 176.914 139.093 176.183 139.997L176.106 140.095C175.125 141.389 172.645 140.195 173.633 138.893C174.744 137.428 176.471 136.402 178.511 136.03ZM125.883 134.606C126.517 134.237 127.475 134.511 127.843 135.034C128.248 135.609 127.983 136.25 127.389 136.626L127.329 136.663C126.785 136.981 126.255 137.551 126.188 138.135L126.182 138.208C126.111 139.735 123.246 139.743 123.318 138.208C123.387 136.705 124.437 135.45 125.883 134.606Z" fill="black"/>
<path fill-rule="evenodd" clip-rule="evenodd" d="M537.212 257.183C534.094 247.159 531.225 242.91 525.685 239.426C520.504 236.168 512.939 233.431 501.902 231.432C490.406 229.766 490.08 224.815 487.198 216.858C486.357 214.466 482.19 213.829 480.391 215.553C480.138 215.326 479.873 215.119 479.6 214.931C479.845 213.79 477.84 210.52 477.907 209.429C478.606 198.038 474.11 192.318 462.887 190.192C460.446 189.729 443.869 189.457 441.489 190.002C431.086 192.385 420.844 199.952 422.412 209.068C419.146 212.605 415.95 214.763 410.912 215.903C403.066 216.728 407.007 308.834 420.634 364.015C426.48 387.69 566.276 347.393 559.959 335.535C560.855 333.362 559.222 330.973 559.959 328.729C560.492 327.104 561.858 326.432 562.545 324.824C563.512 322.561 562.46 319.524 561.371 317.214C560.925 316.063 562.193 314.824 562.545 313.65C564.215 308.109 560.39 308.598 557.632 304.894C557.673 304.883 558.39 302.238 558.387 302.252C558.809 300.364 557.752 297.946 556.829 296.37C556.205 295.305 554.869 294.638 553.542 294.76C554.879 291 556.569 287.871 558.387 284.248C561.602 277.862 564.66 271.181 569.277 265.401C571.167 263.034 569.64 260.857 566.581 260.695C556.678 260.174 546.883 258.993 537.212 257.183Z" fill="#AE5D29"/>
<path fill-rule="evenodd" clip-rule="evenodd" d="M521.753 257.957L499.147 289.66C499.147 289.66 504.51 290.103 506.68 290.967C508.85 291.831 518.815 302.329 518.815 302.329L520.398 308.11L516.647 312.77L518.11 315.696C518.11 315.696 519.154 313.714 521.753 312.175C524.352 310.636 530.083 308.11 530.083 308.11C530.083 308.11 528.178 307.265 528.178 306.274C528.178 305.283 526.501 301.053 530.083 299.456C533.665 297.858 552.177 294.119 552.177 294.119L570.939 261.324L521.753 257.957Z" fill="#EC7495"/>
<path fill-rule="evenodd" clip-rule="evenodd" d="M420.91 216.118L492.69 226.557L525.685 239.426L531.072 242.865L499.147 289.66L449.853 297.113L437.294 324.145L439.857 354.616L520.049 346.693L554.641 343.287L562.772 370.491L561.303 381.682L559.166 387.357L473.413 406.543C473.413 406.543 429.746 403.035 422.005 403.035C414.264 403.035 357.511 407.706 357.511 407.706L344.38 406.543C344.38 406.543 315.327 381.168 310.821 372.137C306.315 363.106 296.571 308.208 296.571 308.208L297.644 299.773L322.745 246.243C322.745 246.243 326.097 243.721 330.322 239.426C334.548 235.131 420.91 216.118 420.91 216.118Z" fill="#9DDADB"/>
<path fill-rule="evenodd" clip-rule="evenodd" d="M550.824 293.443C544.337 293.716 537.843 294.995 531.975 297.31C529.574 298.259 527.399 299.629 526.762 301.883C526.44 303.034 526.518 304.223 526.69 305.385C526.819 306.266 526.851 307.39 527.774 307.986C527.932 308.087 528.1 308.164 528.275 308.22C526.111 309.03 524.049 310.002 522.217 311.004C520.543 311.921 518.822 313.332 518.049 314.925C517.985 314.744 517.921 314.575 517.856 314.415C516.539 311.189 514.511 308.546 511.316 306.77C510.953 305.674 507.059 300.958 503.442 301.136C499.481 301.329 496.295 301.569 492.713 303.078C491.408 303.054 490.105 303.069 488.817 303.117C488.595 303.122 488.606 303.372 488.817 303.392C489.862 303.502 490.907 303.624 491.951 303.766C494.435 304.095 496.911 304.513 499.332 305.032C502.238 305.655 505.244 306.281 507.959 307.369C513.226 309.484 516.486 315.011 515.817 319.821C515.706 320.609 515.337 322.994 514.017 322.747C512.901 322.54 512.457 320.609 512.067 319.895C511.022 317.997 509.14 316.757 506.882 315.918C504.231 314.931 501.394 314.263 498.646 313.487C497.089 313.045 495.533 312.603 493.973 312.164C492.377 311.711 490.86 311.085 489.161 311.402C488.134 311.595 488.016 312.609 488.592 313.19C489.468 314.077 490.771 314.338 492.034 314.702C493.701 315.183 495.365 315.663 497.029 316.144C499.601 316.885 502.295 317.511 504.803 318.418L504.725 318.566C504.521 318.519 504.281 318.688 504.321 318.895C504.696 320.814 505.219 323.032 504.639 324.954C504.181 326.478 502.567 328.166 500.471 327.718C500.8 327.468 500.921 327.038 500.7 326.641C499.869 325.17 488.992 319.364 488.023 321.52C487.991 321.597 488.09 321.653 488.169 321.642C488.996 321.499 490.381 322.667 491.042 323.038C491.998 323.572 492.967 324.094 493.912 324.642C494.946 325.242 495.955 325.87 496.939 326.519C497.712 327.03 498.295 327.56 499.182 327.819C498.717 328.002 498.349 328.343 498.191 328.779C497.791 329.915 497.018 330.879 495.676 331.38C494.27 331.902 492.685 331.573 491.204 331.7C489.186 331.869 487.425 332.664 485.955 333.8C482.867 336.19 481.318 340.401 476.999 341.53C474.419 342.204 471.557 341.779 468.945 341.474C466.029 341.133 463.188 340.863 460.25 341.219C457.438 341.56 454.78 342.367 452.211 343.351C449.803 344.273 447.141 345.317 445.005 346.693C444.564 345.569 444.121 344.457 443.784 343.31C442.99 340.597 442.561 337.833 442.457 335.045C442.36 332.391 442.539 329.725 442.814 327.083C442.951 325.763 443.166 324.45 443.301 323.13C443.337 322.798 443.409 322.442 443.462 322.087C447.277 320.221 451.284 318.792 455.323 317.321C455.334 317.318 455.345 317.312 455.356 317.309C455.481 317.261 455.603 317.217 455.728 317.173C455.724 317.167 455.721 317.161 455.714 317.155C456.175 316.921 456.497 316.609 456.69 316.259C462.512 313.06 467.378 308.692 471.006 303.597C472.527 301.462 473.99 299.247 475.979 297.376C478.097 295.38 480.613 294.194 483.726 293.577C487.364 292.854 491.114 292.42 494.842 292.174C496.878 292.041 499.154 291.833 501.372 291.842C502.918 291.851 504.431 291.961 505.82 292.278C507.877 292.746 509.079 294.043 510.371 295.353C511.605 296.611 512.833 297.871 513.985 299.182C515.076 300.424 516.106 301.708 517.001 303.054C517.538 303.861 518.035 304.691 518.454 305.548C518.6 305.851 518.794 306.195 518.883 306.509C518.972 306.826 518.808 307.162 519.237 307.162C517.466 307.182 516.289 310.842 518.049 310.756C520.524 310.637 521.769 308.178 521.284 305.996C520.419 302.103 515.746 297.402 514.822 296.406C512.779 294.205 510.671 291.335 507.401 290.312C507.355 290.297 507.305 290.283 507.258 290.27C508.21 289.523 508.961 288.628 509.68 287.717C510.421 286.78 511.304 285.707 511.548 284.595C511.702 283.886 510.639 283.483 510.135 284.102C509.401 285.007 509.047 286.151 508.5 287.145C507.941 288.153 507.262 289.105 506.725 290.122C505.433 289.793 504.038 289.642 502.617 289.592C504.41 287.581 507.472 283.702 507.841 283.204C509.537 280.897 511.151 278.519 512.693 276.137C514.36 273.557 515.788 270.871 517.384 268.261C518.289 266.782 519.201 265.29 520.207 263.855C520.554 263.362 520.926 262.87 521.348 262.422C521.431 262.334 521.534 262.259 521.631 262.176C521.742 262.126 521.856 262.069 521.921 262.04C522.5 261.764 522.704 261.124 523.112 260.717C523.763 260.062 524.529 259.985 525.509 259.976C527.599 259.958 529.696 260.026 531.782 260.074C534.848 260.145 537.911 260.246 540.974 260.379C541.9 260.421 542.823 260.462 543.75 260.51C548.205 260.729 552.656 261.017 557.096 261.37C561.025 261.681 564.953 262.188 568.885 262.431C563.561 272.914 557.658 283.207 550.974 293.141C550.906 293.242 550.856 293.343 550.824 293.443ZM521.284 320.449C520.425 320.776 519.591 321.182 518.815 321.645C518.944 320.924 518.976 320.165 518.94 319.403C519.581 319.972 520.4 320.298 521.284 320.449ZM557.94 302.417C557.88 302.423 557.822 302.449 557.794 302.5C556.606 304.531 557.103 306.8 559.042 308.392C560.059 309.222 562.273 310.159 562.201 311.523C562.141 312.627 560.692 313.552 560.073 314.462C559.497 315.31 559.282 316.241 559.744 317.161C560.334 318.338 561.983 318.806 562.549 319.963C563.264 321.431 562.102 323.201 561.286 324.479C560.527 325.662 559.547 326.846 558.896 328.097C554.534 329.969 544.637 333.367 543.446 333.557C541.993 333.791 540.537 334.013 539.077 334.221C536.275 334.624 533.467 334.998 530.651 335.327C529.048 335.514 527.442 335.697 525.835 335.843C524.432 335.967 522.851 336.136 521.72 335.262C519.441 333.494 520.719 330.532 522.16 328.747C522.189 328.711 522.189 328.678 522.178 328.649C523.538 328.385 524.894 328.076 526.247 327.86C528.848 327.445 531.467 327.095 534.089 326.784C539.478 326.146 544.902 325.725 550.319 325.301C551.661 325.194 551.675 323.445 550.319 323.548C542.537 324.139 534.716 324.699 527.037 325.942C525.112 326.25 523.201 326.6 521.302 326.994C520.404 327.178 519.441 327.466 518.5 327.475C518.443 327.475 518.385 327.475 518.328 327.471C516.486 327.424 516.217 326.116 517.23 325.028C517.355 324.894 517.484 324.761 517.616 324.634C519.405 322.866 521.634 321.686 523.931 320.464C526.504 320.174 529.07 319.527 531.588 319.053C537.807 317.878 544.026 316.704 550.248 315.533C551.467 315.301 550.949 313.747 549.729 313.976C545.006 314.863 540.283 315.749 535.56 316.636L528.647 317.935C527.266 318.193 525.541 318.712 523.917 318.899C523.116 318.99 522.339 319.002 521.638 318.866C519.373 318.421 519.259 316.075 520.235 314.682C521.33 313.116 523.398 312.137 525.234 311.251C528.415 309.712 531.8 308.605 535.106 307.33C535.692 307.224 536.279 307.117 536.866 307.01C540.279 306.387 544.179 306.082 547.392 304.941C548.355 304.602 547.829 303.345 546.877 303.363C544.383 303.407 541.775 304.143 539.338 304.578C536.701 305.053 534.061 305.524 531.424 305.996C531.159 306.043 529.592 306.459 529.356 306.367C529.206 306.307 529.152 305.875 529.102 305.59C528.94 304.653 528.823 303.668 528.998 302.728C529.384 300.62 531.506 299.629 533.653 298.82C538.433 297.02 543.675 295.893 548.892 295.442C550.094 295.338 551.296 295.273 552.505 295.24C553.926 295.205 555.096 294.997 555.815 296.157C556.946 297.983 557.568 300.332 557.94 302.417ZM551.302 368.648C550.26 365.662 550.544 362.474 549.83 359.429C549.462 357.858 548.959 356.299 548.41 354.766C547.967 353.527 547.229 352.209 547.145 350.916C547.14 350.83 547.263 350.78 547.347 350.82C548.816 351.517 549.945 353.025 550.783 354.208C551.786 355.624 552.552 357.107 553.17 358.666C554.402 361.771 555.413 365.518 553.825 368.648C553.352 369.579 551.692 369.766 551.302 368.648ZM510.653 391.249C509.101 390.351 507.97 389.096 506.653 387.988C505.359 386.899 507.383 385.222 508.677 386.311C509.801 387.256 510.776 388.436 512.097 389.2C512.733 389.568 513.028 390.232 512.611 390.823C512.243 391.345 511.287 391.615 510.653 391.249ZM501.997 356.747C504.83 355.732 507.617 354.626 510.582 353.895C512.355 353.457 513.105 355.747 511.343 356.182C508.612 356.856 506.051 357.861 503.442 358.795C501.767 359.395 500.311 357.351 501.997 356.747ZM472.074 356.037C471.381 354.62 474.152 354.009 474.834 355.406C475.62 357.014 476.521 358.581 477.307 360.188C478 361.605 475.23 362.216 474.547 360.819C473.761 359.211 472.86 357.645 472.074 356.037ZM442.54 384.332C442.078 384.842 441.309 385.119 440.581 384.758C439.973 384.455 439.601 383.651 440.068 383.135C441.432 381.628 442.815 380.139 444.414 378.795C445.71 377.706 447.733 379.385 446.438 380.473C445.01 381.673 443.758 382.986 442.54 384.332ZM438.317 225.567C439.63 226.311 440.781 227.214 441.904 228.144C443.209 229.225 441.184 230.902 439.879 229.821C438.934 229.038 437.98 228.242 436.872 227.616C436.232 227.253 435.944 226.579 436.358 225.993C436.729 225.467 437.678 225.206 438.317 225.567ZM481.285 263.743C480.542 264.975 479.874 266.184 479.831 267.585C479.786 269.111 476.924 269.112 476.969 267.585C477.024 265.752 477.84 264.161 478.813 262.545C479.637 261.177 482.105 262.38 481.285 263.743ZM497.05 233.083C498.589 232.232 500.021 234.288 498.496 235.131C497.259 235.814 496.022 236.497 494.786 237.181C493.247 238.031 491.816 235.975 493.341 235.132C494.577 234.449 495.814 233.766 497.05 233.083ZM428.67 286.689C428.407 288.197 425.649 287.552 425.909 286.059C426.312 283.751 426.803 281.474 427.558 279.226C428.053 277.755 430.813 278.384 430.318 279.857C429.563 282.105 429.072 284.382 428.67 286.689ZM418.634 313.864C416.791 313.832 416.791 311.459 418.634 311.492C420.301 311.521 421.94 311.885 423.548 312.217C425.337 312.588 424.575 314.875 422.787 314.505C421.428 314.223 420.043 313.889 418.634 313.864ZM414.929 368.605C414.296 368.861 413.647 369.091 413.007 369.333C411.726 369.819 410.445 370.305 409.165 370.792C406.498 371.807 403.832 372.825 401.169 373.846C395.838 375.891 390.466 377.865 385.122 379.888C379.672 381.951 374.237 384.042 368.808 386.143C366.25 387.132 363.674 388.086 361.102 389.05C358.903 389.874 356.185 391.314 353.77 391.449C353.646 391.456 353.605 391.326 353.676 391.259C354.588 390.4 356.042 389.9 357.241 389.341C358.465 388.77 359.713 388.233 360.954 387.688C363.543 386.551 366.134 385.424 368.748 384.327C373.975 382.135 379.212 379.958 384.451 377.785C389.794 375.567 395.13 373.335 400.519 371.197C403.057 370.19 405.597 369.186 408.138 368.185C409.515 367.643 410.892 367.102 412.27 366.562C412.865 366.328 413.454 366.077 414.062 365.868C414.87 365.59 415.485 365.647 416.318 365.476C417.678 365.198 418.267 366.631 417.223 367.255C416.363 367.769 415.911 368.208 414.929 368.605ZM395.82 392.931C395.526 392.339 396.141 391.62 396.82 391.472C397.632 391.294 398.284 391.704 398.581 392.3C399.365 393.882 400.483 395.334 401.922 396.56C403.208 397.655 401.185 399.333 399.898 398.237C398.095 396.701 396.799 394.905 395.82 392.931ZM381.762 354.852C380.457 353.771 382.481 352.093 383.786 353.175L387.496 356.249C388.8 357.33 386.776 359.008 385.471 357.926L381.762 354.852ZM343.703 349.839C341.036 350.488 337.925 351.084 336.107 352.969C336.018 353.062 335.869 352.943 335.922 352.851C338.25 348.852 344.926 347.449 349.548 346.048C352.817 345.056 356.171 344.234 359.554 343.5C359.216 340.302 360.148 336.874 360.472 333.692C360.818 330.294 361.1 326.887 361.245 323.479C361.392 320.002 361.428 316.501 361.29 313.024C361.153 309.559 360.61 306.136 360.372 302.682C360.349 302.348 360.91 302.332 361.031 302.609C362.436 305.813 363.036 309.363 363.493 312.742C363.964 316.223 364.12 319.694 364.06 323.196C363.998 326.796 363.746 330.387 363.399 333.975C363.235 335.676 363.044 337.375 362.864 339.075C362.727 340.372 362.663 341.658 362.344 342.914C364.384 342.499 366.429 342.107 368.467 341.725C374.967 340.51 381.494 339.382 387.966 338.067C391.144 337.422 394.275 336.649 397.438 335.963C400.417 335.317 403.56 334.533 406.618 334.245C407.709 334.142 407.848 335.379 407.126 335.799C404.641 337.245 401.34 338.252 398.469 339.062C395.588 339.874 392.593 340.459 389.641 341.06C383.482 342.316 377.266 343.342 371.059 344.411C364.86 345.479 358.65 346.539 352.521 347.856C349.57 348.491 346.628 349.128 343.703 349.839ZM329.088 286.373C327.494 287.148 326.055 285.097 327.643 284.324C329.721 283.314 331.935 282.554 334.168 281.814C335.881 281.245 336.618 283.541 334.929 284.101C332.923 284.767 330.955 285.465 329.088 286.373ZM323.317 374.509C321.719 375.277 320.279 373.226 321.873 372.461C324.11 371.386 326.561 370.669 328.88 369.728C330.53 369.059 331.979 371.106 330.324 371.777C328.006 372.717 325.555 373.434 323.317 374.509ZM320.722 324.479C322.267 325.695 324.329 326.268 326.273 326.907C327.968 327.464 327.225 329.757 325.512 329.195C323.09 328.398 320.622 327.672 318.698 326.156C317.359 325.102 319.386 323.428 320.722 324.479ZM337.814 256.534C339.513 257.086 338.769 259.38 337.053 258.822C335.15 258.203 333.185 257.732 331.282 257.114C329.584 256.562 330.328 254.269 332.043 254.826C333.946 255.445 335.911 255.916 337.814 256.534ZM367.967 229.547C369.772 229.295 370.54 231.581 368.728 231.834C366.479 232.149 364.265 232.517 362.133 233.201C360.411 233.753 359.672 231.458 361.372 230.913C363.505 230.23 365.719 229.861 367.967 229.547ZM377.93 295.255C376.275 294.581 377.727 292.536 379.374 293.207C381.11 293.914 382.909 294.461 384.803 294.795C386.607 295.113 385.839 297.4 384.042 297.083C381.91 296.706 379.882 296.051 377.93 295.255ZM387.34 258.242C389.121 257.838 389.875 260.127 388.101 260.53C384.979 261.239 381.765 261.607 378.62 262.238C376.828 262.598 376.07 260.309 377.859 259.951C381.004 259.32 384.218 258.952 387.34 258.242ZM427.258 246.627C429.07 246.905 428.298 249.191 426.497 248.915C424.58 248.621 422.638 248.617 420.695 248.616C418.85 248.615 418.853 246.243 420.695 246.243C422.902 246.244 425.082 246.294 427.258 246.627ZM557.447 259.021C552.77 258.651 548.087 258.354 543.396 258.132C543.177 258.122 542.963 258.111 542.744 258.102C542.72 258.06 542.687 258.022 542.655 257.98C541.124 256.118 539.997 254.256 539.02 252.15C538.086 250.145 537.181 248.079 535.742 246.27C534.102 244.209 531.887 242.596 529.46 241.199C527.988 242.019 526.621 242.98 525.371 243.998C524.055 245.07 522.031 243.393 523.347 242.321C524.458 241.416 525.644 240.58 526.897 239.825C525.45 239.096 523.973 238.411 522.533 237.729C517.133 235.176 511.605 232.816 505.963 230.657C503.34 229.652 500.685 228.759 498.013 227.855C496.574 227.368 495.154 226.743 493.715 226.179C493.819 225.337 493.515 224.394 492.735 223.839C492.159 223.433 491.712 223.282 491.025 222.995C490.871 222.95 490.778 222.923 490.735 222.908C490.767 222.914 490.86 222.938 491.014 222.979C491.379 223.119 491.408 223.077 491.1 222.858C491.082 222.378 489.94 221.364 489.679 220.868C488.771 219.169 488.488 217.372 487.146 215.824C485.296 213.692 482.191 212.885 479.296 213.609C478.996 211.044 478.917 208.366 477.75 206.077C477.718 206.015 477.614 205.988 477.568 206.056C476.351 207.773 476.248 209.685 476.155 211.666C476.065 213.526 476.151 215.427 476.444 217.274C476.258 217.393 476.069 217.506 475.872 217.615C474.949 218.119 473.954 218.508 472.909 218.796C470.92 219.341 468.834 219.578 466.748 219.661C461.363 219.875 455.814 219.424 450.518 218.659C445.162 217.885 436.951 216.722 432.185 214.501C429.039 213.037 426.138 211.248 423.196 209.516C424.263 206.67 424.535 203.609 423.462 201.204C423.333 200.917 422.789 200.863 422.685 201.204C422.012 203.5 421.816 205.807 420.921 208.075C420.907 208.108 420.893 208.144 420.878 208.176C420.599 208.019 420.32 207.865 420.041 207.711C419.397 207.358 418.52 207.622 418.134 208.126C411.954 216.195 402.169 216.657 391.893 218.099C380.647 219.676 369.344 221.378 358.532 224.465C348.191 227.419 338.309 231.719 330.48 238.142C328.708 239.596 327.051 241.145 325.486 242.763C327 242.921 328.501 243.167 329.983 243.553C331.737 244.01 330.983 246.299 329.221 245.841C327.317 245.345 325.392 245.1 323.447 244.977C318.128 251.008 313.98 257.847 310.393 264.578C303.514 277.484 299.036 291.228 296.976 305.221C298.107 304.659 299.259 304.124 300.439 303.626C302.079 302.934 303.526 304.982 301.884 305.674C300.06 306.443 298.289 307.29 296.573 308.209C295.824 314.334 295.533 320.498 295.709 326.653C296.128 341.326 298.518 356.429 303.924 370.428C306.576 377.299 310.089 384.114 315.324 389.92C317.692 392.55 320.383 394.922 323.553 396.9C325.088 397.861 326.713 398.719 328.426 399.442C330.634 400.379 333.511 400.687 335.414 402.013C336.04 402.449 336.523 403.024 336.888 403.673C336.677 404.907 336.652 406.144 337.06 407.377C337.189 407.763 337.54 408.077 337.973 408.228C337.98 408.335 337.98 408.439 337.98 408.54C337.98 408.587 338.066 408.599 338.076 408.552C338.094 408.46 338.112 408.368 338.13 408.273C338.27 408.311 338.416 408.329 338.566 408.329C344.001 408.346 349.443 408.237 354.885 408.084C354.465 407.015 354.009 405.956 353.571 404.887C352.977 403.436 355.742 402.819 356.331 404.257C356.843 405.506 357.378 406.744 357.855 407.998C363.686 407.818 369.515 407.602 375.334 407.443C387.71 407.101 400.083 406.989 412.462 406.773C431.687 406.435 451.052 405.743 470.307 406.42C470.973 405.248 471.718 404.104 472.425 402.949C473.258 401.585 475.727 402.787 474.896 404.146C474.405 404.949 473.896 405.741 473.413 406.543C477.312 406.711 481.208 406.932 485.096 407.235C491.729 407.751 498.299 408.667 504.925 409.237C511.662 409.818 518.253 409.714 524.937 408.792C526.139 408.626 526.848 408.024 527.141 407.276C527.151 407.273 527.159 407.268 527.166 407.259C527.509 406.926 527.832 406.651 528.164 406.41C528.561 406.197 528.991 406.016 529.495 405.856C530.436 405.559 531.417 405.378 532.411 405.257C533.506 405.121 534.615 405.109 535.71 404.996C536.633 404.898 537.535 404.753 538.436 404.575C540.058 404.255 541.596 403.837 543.127 403.282C544.462 402.799 545.667 402.105 546.806 401.349C549.16 399.922 551.199 398.102 552.981 396.209C554.019 395.103 554.996 393.956 555.883 392.761C557.429 390.691 558.745 388.541 560.076 386.373C560.559 385.731 561 385.073 561.403 384.402C558.802 383.766 556.176 383.249 553.418 383.212C551.575 383.187 551.575 380.815 553.418 380.839C556.581 380.881 559.572 381.494 562.544 382.223C562.689 381.904 562.828 381.583 562.957 381.258C563.311 380.579 563.604 379.882 563.848 379.176C563.99 378.856 564.134 378.536 564.277 378.215C564.599 377.106 564.921 375.994 565.247 374.882C565.894 373.103 566.406 371.297 566.782 369.467C567.096 368.263 567.34 367.051 567.504 365.823C568.005 362.849 568.413 359.88 568.442 356.873C568.399 355.02 568.256 353.17 568.012 351.328C567.909 350.077 567.733 348.831 567.497 347.595C567.189 345.756 566.885 343.936 566.374 342.12C565.991 340.893 565.608 339.665 565.225 338.437C564.27 335.879 563.143 333.37 561.844 330.917C561.772 330.763 561.411 330.425 561.193 330.422C561.028 330.419 560.799 330.544 560.874 330.71C560.881 330.724 560.888 330.742 560.896 330.757C560.821 330.618 560.749 330.475 560.674 330.336C560.61 330.205 560.359 329.945 560.166 329.948C560.155 329.948 560.144 329.948 560.13 329.95C560.18 329.921 560.227 329.882 560.273 329.838C561.558 328.578 562.391 326.92 563.311 325.461C564.073 324.257 564.792 322.988 565 321.627C565.182 320.432 564.935 319.254 564.03 318.288C563 317.187 561.06 316.671 562.137 315.082C563.361 313.273 565.161 311.704 563.368 309.649C562.456 308.603 561.01 308.028 559.937 307.117C558.702 306.064 558.115 304.656 558.148 303.217C558.223 303.253 558.323 303.235 558.359 303.146C559.397 300.548 558.645 297.696 557.583 295.166C557.003 293.794 555.775 293.417 554.348 293.349C560.53 283.341 566.316 273.172 571.472 262.769C571.644 262.428 571.812 262.087 571.98 261.746C572.231 261.236 571.701 260.557 571.089 260.444C566.631 259.635 561.987 259.377 557.447 259.021Z" fill="black"/>
<path fill-rule="evenodd" clip-rule="evenodd" d="M505.567 135.065C504.719 125.948 506.033 116.392 501.801 107.726C494.422 93.3487 473.729 88.5548 457.686 83.081C451.26 81.5038 429.634 81.2834 422.109 79.1959C405.078 74.4715 401.009 68.8424 387.476 77.8379C385.191 79.3745 383.762 81.0447 382.72 83.3265L382.762 83.3363C382.465 84.2876 382.784 85.2368 383.455 85.9619C377.587 90.9432 375.132 98.4112 378.142 105.042C387.967 122.298 387.505 131.628 384.34 150.178C380.206 167.496 389.652 173.822 405.296 183.245C404.659 184.271 404.527 185.634 405.358 186.539C423.448 207.652 457.558 217.733 486.783 207.017C498.645 202.631 503.942 192.139 506.964 182.671C510.485 172.07 511.567 160.899 508.7 150.101C507.544 145.106 506.038 140.148 505.567 135.065Z" fill="#AE5D29"/>
<path fill-rule="evenodd" clip-rule="evenodd" d="M375.997 109.202L386.753 115.154L425.257 81.4408L412.443 73.0649C412.443 73.0649 389.197 87.334 384.627 91.0999C380.056 94.8658 375.997 109.202 375.997 109.202Z" fill="#9FD8E5"/>
<path fill-rule="evenodd" clip-rule="evenodd" d="M401.218 34.0571C403.414 33.7832 405.072 34.9147 405.861 36.5096L405.902 36.5954C406.156 37.1381 406.438 37.666 406.742 38.1849C412.236 35.946 420.077 36.5213 423.555 41.0554C426.036 44.2936 424.522 48.1368 423.587 51.5707L422.973 53.8333C424.16 54.4607 425.055 55.5843 425.013 56.7477L425.008 56.8373L424.758 59.9925C425.551 59.3253 426.275 58.5987 426.922 57.8248C427.368 57.1457 427.85 56.4785 428.368 55.832C431.413 52.0274 438.251 55.3338 435.737 59.4083C435.255 60.1941 434.712 60.9384 434.13 61.6561C433.473 62.7147 432.934 63.803 432.52 64.921C433.709 65.351 434.623 66.3058 434.72 67.747C434.944 71.1128 432.816 73.921 429.432 75.6854C428.436 76.2044 427.407 76.3052 426.475 76.1124C426.311 76.2963 426.147 76.4801 425.99 76.667C427.339 77.5773 428.557 78.6152 429.603 79.7658C432.752 79.3744 435.919 79.1905 439.086 79.1846C442.957 77.61 447.591 77.6426 451.751 78.2327C454.428 78.6123 456.999 79.3507 459.634 79.8815C462.412 80.439 465.233 80.4597 468.042 80.8393C471.584 81.3167 474.691 82.6749 476.644 84.8426C478.79 84.896 481.046 85.6255 482.917 86.6159C487.273 88.923 491.604 91.2627 495.949 93.5846C497.617 94.476 498.24 95.8991 497.934 97.4864L497.913 97.5879L497.766 98.2462L498.11 98.6514C499.44 100.211 500.887 101.845 501.747 103.566C503.34 105.473 504.779 107.472 506.053 109.533C507.771 112.302 509.188 115.238 510.149 118.251C510.388 119.013 510.627 119.781 510.784 120.558C511.009 121.655 510.663 122.506 510.474 123.559C510.238 124.893 510.152 126.246 509.902 127.583C509.735 128.47 508.828 128.906 507.878 128.929C508.235 131.186 508.492 133.457 508.738 135.711C509.085 138.932 509.32 142.161 509.524 145.39C510.574 146.656 512.719 147.659 514.269 148.006C516.415 148.483 518.664 147.964 520.692 147.356C521.967 146.974 523.013 148.305 522.392 149.195C520.439 151.988 516.261 151.976 513.098 150.74C511.759 150.218 510.584 149.462 509.713 148.477C509.767 149.414 509.824 150.351 509.881 151.291L509.934 152.143C510.577 162.086 511.966 172.372 509.717 182.218C505.821 199.272 488.829 212.257 468.071 213.265C457.178 213.795 448.107 211.122 443.597 209.632C439.086 208.141 440.839 205.102 443.971 205.971C449.365 207.467 459.274 209.697 468.142 208.734C489.044 206.465 506.768 197.788 504.947 160.419C504.688 155.12 503.893 149.818 503.722 144.518C503.558 139.338 503.618 134.154 503.343 128.977L503.252 127.21C503.144 125.146 503.03 123.072 502.844 121.006C502.619 120.205 502.433 119.393 502.158 118.607C501.412 116.469 500.437 114.39 499.227 112.406C498.959 112.575 498.659 112.697 498.334 112.744C495.867 113.112 493.553 113.008 491.243 112.154C490.165 111.76 489.215 111.235 488.33 110.585C487.908 110.28 487.626 109.983 487.405 109.675C486.287 109.69 485.17 109.411 484.47 108.744C483.672 107.983 483.539 107.198 483.852 106.471L483.885 106.398L483.806 106.374C482.863 108.4 480.985 110.182 478.925 111.386C475.669 113.296 471.595 113.847 467.689 113.898C463.376 113.951 458.827 113.399 454.571 112.836C453.446 112.688 452.329 112.519 451.233 112.29C451.19 112.326 451.147 112.367 451.101 112.403C447.448 115.306 442.31 116.053 437.676 114.396C434.998 113.438 432.752 111.896 430.767 110.129C430.738 111.054 430.681 111.979 430.585 112.895L430.545 113.259C430.347 114.966 429.967 116.776 428.414 118.008C425.904 120.003 422.262 119.203 419.367 117.904C419.37 117.966 419.37 118.031 419.37 118.097C420.152 120.303 420.938 122.512 421.723 124.721L421.892 125.192C422.463 126.761 423.09 128.331 423.262 129.973C423.59 133.11 421.077 136.209 416.878 135.157C414.676 134.606 412.911 133.068 411.218 131.836L410.151 131.07C412.911 138.564 414.825 146.324 415.004 154.144C415.014 154.568 414.575 154.888 414.089 154.903C412.954 154.942 411.733 154.755 410.59 154.378C410.526 154.375 410.462 154.372 410.394 154.364C408.445 154.129 406.634 153.545 405.038 152.682C405.406 153.652 405.57 154.693 405.474 155.781C405.449 156.045 404.953 156.137 404.881 155.846C403.96 152.083 398.658 149.239 394.088 149.96C389.182 150.734 385.569 154.239 384.683 158.227C383.734 162.512 385.551 167.468 388.918 170.774C390.467 172.298 392.506 173.57 394.927 173.891C396.034 174.036 397.183 173.986 398.258 173.725C398.715 173.612 399.144 173.455 399.579 173.307C400.215 173.093 400.957 173.06 401.557 172.835C402.918 172.328 404.285 173.369 403.596 174.528C402.996 175.539 402.457 176.222 401.461 176.743C402.268 177.562 403 178.701 403.271 179.006C404.656 180.56 406.063 182.028 407.641 183.448C409.248 184.889 411.001 186.206 412.854 187.425L413.633 187.936C415.418 189.112 416.972 190.201 418.231 191.888C419.224 193.219 417.938 195.025 416.078 195.004C410.258 194.936 406.027 190.69 403.014 186.98C402.586 186.449 402.182 185.889 401.807 185.313C401.671 185.494 401.522 185.663 401.354 185.818L401.686 186.559C402.671 188.741 398.426 190.168 397.194 188.131C396.298 186.654 395.259 185.248 394.102 183.92C393.42 183.84 392.753 183.496 392.381 183.051C391.442 181.921 390.389 180.779 389.5 179.575C389.007 179.187 388.5 178.813 387.982 178.449C387.832 178.558 387.679 178.668 387.533 178.784C386.883 180.014 386.079 181.138 385.083 182.197L384.87 182.423C382.961 184.42 380.476 186.465 377.4 186.953C376.461 187.102 375.557 186.132 376.389 185.512C378.542 183.905 381.088 182.811 383.073 181.017C384.051 180.133 384.949 179.159 385.721 178.139L385.897 177.903C386.026 177.728 386.158 177.553 386.294 177.375C385.397 176.868 384.501 176.358 383.605 175.848C381.138 177.598 377.925 178.399 375.197 179.849L374.925 179.997C372.458 181.367 369.859 178.336 371.837 176.672C374.017 174.845 375.838 172.667 377.769 170.636C376.861 169.246 376.431 167.603 376.27 165.943C376.206 165.473 376.157 165.002 376.107 164.532C374.722 164.55 373.329 164.155 372.151 163.476L371.705 163.212C370.273 163.592 368.77 163.776 367.331 163.743C363.946 163.66 362.561 160.449 364.678 158.417C366.838 156.341 370.619 155.888 373.615 156.896C373.711 156.854 373.811 156.81 373.908 156.766C373.765 156.22 373.797 155.725 373.959 155.29L373.912 155.025C373.253 154.186 372.82 153.227 372.656 152.215C372.526 151.412 372.552 150.617 372.776 149.825C372.85 149.562 373.005 149.289 373.123 149.014C372.879 148.503 372.736 147.975 372.692 147.444C372.624 147.377 372.556 147.308 372.492 147.233C371.005 145.5 371.306 143.411 372.72 142.009C372.727 141.92 372.737 141.83 372.751 141.742C372.668 141.587 372.592 141.431 372.523 141.272C371.141 140.114 370.126 138.721 370.315 136.994C370.427 135.978 370.929 135.064 371.69 134.38C371.555 134.049 371.542 133.665 371.706 133.344C370.492 130.662 370.645 127.431 371.519 124.431C371.326 123.974 371.226 123.479 371.248 122.954C371.348 120.727 373.668 118.681 376.418 118.708C376.749 118.71 377.059 118.746 377.356 118.798L377.36 118.745C377.466 118.077 377.687 117.459 378.01 116.905C377.851 116.857 377.704 116.789 377.575 116.698C375.814 117.478 373.949 118.075 371.995 118.481C370.558 118.78 369.086 117.423 369.979 116.303C370.394 115.783 370.851 115.317 371.344 114.89C370.643 114.893 369.932 114.933 369.213 115.01C367.92 115.149 366.478 114.417 365.639 113.426C364.596 114.268 363.55 115.107 362.504 115.947C359.854 118.079 355.852 116.51 355.434 113.699C354.645 113.524 353.91 113.227 353.263 112.803C349.086 114.31 344.591 115.137 339.996 115.294C336.697 115.407 334.769 112.216 336.311 109.963C337.346 108.45 338.632 107.092 340.113 105.912C337.814 106.496 335.44 106.917 333.015 107.187C331.705 107.332 329.852 106.431 329.327 105.431C327.321 101.588 327.492 97.582 329.802 93.8426C329.891 93.6943 329.991 93.552 330.088 93.4096C330.327 92.9144 330.588 92.4251 330.87 91.9447C328.028 89.4834 327.781 85.8241 329.313 82.7609C328.699 81.9335 328.463 80.9371 328.881 80.0357C330.07 77.4409 331.784 75.0449 333.947 72.9869C333.74 72.6548 333.558 72.3019 333.405 71.9223C332.187 68.8531 333.597 65.1493 336.443 63.0113C338.232 61.665 340.288 60.8584 342.484 60.3424C343.409 58.9842 344.598 57.7595 345.983 56.7276C346.037 56.6297 346.09 56.5319 346.151 56.434C348.308 53.0594 352.235 51.2505 356.445 50.8323C356.609 49.5127 357.68 48.2524 359.237 47.8432C359.665 46.7015 360.304 45.6103 361.183 44.6198C362.564 43.06 364.86 42.3246 367.024 43.3477C368.209 43.9081 369.345 44.5516 370.409 45.2633C370.887 45.0772 371.428 44.9567 372.04 44.9183L372.194 44.9104L375.714 44.7622C377.189 44.2195 378.66 43.6501 380.135 43.0956C381.02 42.4877 382.009 41.9806 383.087 41.604C384.308 41.18 385.558 40.9398 386.811 40.8597C387.829 40.5839 388.854 40.3407 389.896 40.151C392.345 39.7062 394.909 39.4571 397.451 39.4778C397.503 38.9313 397.529 38.3783 397.524 37.8188L397.519 37.5384C397.462 35.7444 399.186 34.3121 401.218 34.0571ZM398.751 177.597C398.401 177.66 398.047 177.71 397.694 177.746C397.801 177.965 397.908 178.185 398.012 178.404C398.297 178.538 398.587 178.665 398.876 178.784C398.79 178.38 398.74 177.974 398.751 177.597ZM380.407 173.07L380.17 173.433C380.131 173.493 380.093 173.551 380.056 173.609C380.559 173.576 381.066 173.585 381.566 173.633L381.565 173.589C381.501 173.57 381.436 173.554 381.375 173.529C381.03 173.391 380.709 173.237 380.407 173.07ZM390.321 156.508C393.48 156.66 396.156 157.063 399.029 158.21L399.276 158.311C401.814 159.357 406.013 161.291 405.66 164.063C405.56 164.852 404.871 165.683 403.785 165.62C400.811 165.451 399.111 162.96 397.098 161.406C395.066 159.841 392.57 158.23 390.11 157.154C389.763 157.002 389.9 156.523 390.278 156.507L390.321 156.508ZM375.996 119.977C375.239 119.997 375.493 120.608 375.882 120.098C375.914 120.057 375.954 120.015 375.996 119.977ZM416.855 79.1959C409.686 79.3524 402.472 82.8679 397.101 86.4214C392.429 89.5128 388.395 93.1899 384.823 97.1532C383.904 99.1269 383.115 101.142 382.448 103.172C382.009 104.512 381.734 105.867 381.366 107.22L381.252 107.634C380.963 108.082 380.749 108.565 380.592 109.063C381.243 109.605 382.088 109.994 383.017 110.178C383.317 110.237 383.566 110.366 383.762 110.536C384.511 109.498 385.165 108.404 385.546 107.243L385.56 107.189C386.998 105.232 388.56 103.336 390.235 101.505C394.856 96.4492 399.943 91.8409 406.06 88.0067C410.698 85.1006 415.882 82.8231 421.395 81.3434C420.045 80.4392 418.513 79.724 416.855 79.1959Z" fill="black"/>
<path fill-rule="evenodd" clip-rule="evenodd" d="M481.73 189.154C479.094 189.786 476.265 189.843 473.579 189.19C471.142 188.597 468.639 187.292 466.846 185.566C465.253 184.033 464.221 182.17 464.261 180.181C464.266 179.954 464.364 179.764 464.515 179.617C464.677 179.459 464.904 179.35 465.147 179.303C465.396 179.254 465.66 179.271 465.885 179.356C466.089 179.433 466.263 179.563 466.372 179.753C466.648 180.053 466.922 180.349 467.198 180.636C469.414 182.904 471.56 184.599 474.893 185.207C476.701 185.537 478.507 185.391 480.164 184.887C481.937 184.348 483.541 183.401 484.797 182.189C485.365 181.641 486.035 181.417 486.691 181.413C487.433 181.409 488.168 181.695 488.721 182.152C489.264 182.602 489.629 183.213 489.662 183.852C489.69 184.412 489.47 184.998 488.883 185.52C486.949 187.242 484.442 188.503 481.73 189.154ZM481.649 160.748C484.351 162.109 488.468 165.283 485.561 168.657C482.14 171.632 477.214 168.221 474.786 166.678C472.535 165.482 470.006 168.558 472.095 169.954C489.635 180.717 496.754 161.103 483.015 159.147C481.503 158.932 480.941 160.326 481.649 160.748ZM456.374 154.758C455.506 154.298 454.484 154.14 453.352 154.567C452.467 154.9 450.916 156.012 449.836 157.473C449.097 158.473 448.573 159.646 448.682 160.867C448.707 161.151 448.581 161.36 448.381 161.515C448.224 161.637 447.996 161.727 447.729 161.755C447.502 161.779 447.248 161.757 447.041 161.704C446.649 161.602 446.441 161.391 446.362 161.218C445.606 159.554 445.932 157.697 446.779 156.022C447.923 153.76 450 151.866 451.36 151.256C453.689 150.21 456.436 150.162 458.767 151.227C460.752 152.134 461.993 153.597 463.228 155.088C463.49 155.406 463.751 155.72 464.02 156.03C464.559 156.649 464.613 157.264 464.404 157.791C464.173 158.374 463.583 158.867 462.845 159.125C462.163 159.363 461.371 159.397 460.671 159.152C460.079 158.945 459.536 158.542 459.192 157.858C458.614 156.705 457.649 155.434 456.374 154.758ZM500.479 157.322C499.884 157.579 499.419 157.656 498.759 157.492C498.394 157.401 498.033 157.227 497.751 156.993C497.471 156.761 497.269 156.473 497.191 156.153C496.998 155.364 496.477 154.625 495.734 154.143C495.099 153.731 494.298 153.513 493.409 153.636C492.45 153.769 491.536 154.278 490.907 154.879C490.697 155.081 490.532 155.309 490.366 155.536C490.056 155.96 489.755 156.354 489.327 156.666C489.165 156.785 488.921 156.867 488.684 156.867C488.588 156.867 488.49 156.854 488.397 156.83C487.443 156.036 487.259 155.433 487.29 154.836C487.322 154.209 487.62 153.575 488.102 152.983C489.232 151.595 491.377 150.456 492.824 150.199C494.807 149.845 496.775 150.269 498.354 151.187C499.978 152.131 501.182 153.597 501.557 155.249C501.647 155.647 501.609 156.076 501.426 156.449C501.247 156.813 500.936 157.124 500.479 157.322ZM460.746 139.956C459.557 140.916 458.148 141.065 456.724 141.198C455.932 141.272 455.301 141.332 454.679 141.448C452.97 141.768 451.281 142.249 449.739 142.943C448.128 143.668 446.373 144.542 445.11 145.662C444.809 145.929 444.526 146.208 444.243 146.489C443.984 146.744 443.735 146.99 443.473 147.227C443.171 147.5 442.885 147.786 442.6 148.07C442.424 148.311 442.389 148.37 442.354 148.431C442.301 148.524 442.239 148.627 442.168 148.738C442.071 148.89 441.957 149.057 441.838 149.208C441.64 149.484 441.533 149.56 441.441 149.594C441.289 149.65 441.144 149.678 441.004 149.663C440.873 149.648 440.749 149.596 440.627 149.51C440.016 149.083 439.836 148.381 439.854 147.636C439.882 146.505 440.385 145.253 440.849 144.484C441.928 142.696 443.423 140.837 445.222 139.502C447.274 137.979 449.52 136.826 452.099 136.031C453.701 135.537 455.557 135.084 457.303 135.141C458.56 135.182 459.76 135.492 460.751 136.265C461.359 136.74 461.651 137.415 461.651 138.09C461.651 138.778 461.348 139.47 460.746 139.956ZM502.898 148.753C502.822 148.855 502.718 148.926 502.601 148.969C502.479 149.013 502.343 149.026 502.212 149.008C502.082 148.99 501.958 148.941 501.859 148.866C501.765 148.794 501.694 148.699 501.662 148.583C500.872 145.708 499.338 143.568 496.065 142.189C494.454 141.51 492.603 141.079 490.85 140.736C490.34 140.636 489.802 140.571 489.26 140.505C487.561 140.3 485.85 140.064 484.743 138.926C484.076 138.241 483.795 137.364 483.954 136.562C484.103 135.807 484.635 135.115 485.603 134.7C488.012 133.668 491.005 134.681 493.438 135.544C493.618 135.608 493.795 135.671 493.969 135.731C496.348 136.563 498.517 137.662 500.301 139.233C501.716 140.479 503.027 142.322 503.555 144.217C503.994 145.794 503.891 147.404 502.898 148.753Z" fill="black"/>
</svg>
